<svg width="244" height="195" viewBox="0 0 244 195" fill="none" xmlns="http://www.w3.org/2000/svg">
<path d="M32.3348 71.697L32.3368 71.6965C36.0015 70.759 39.8277 70.4944 43.6958 70.2269C44.4851 70.1724 45.2762 70.1176 46.068 70.0571C50.713 69.7018 55.3623 69.1441 59.64 67.1647C66.6264 63.9566 70.3557 56.571 73.0568 49.5759C74.4398 45.9942 74.9773 40.6896 75.2454 35.405C75.3696 32.9576 75.436 30.524 75.4982 28.2449C75.5655 25.7813 75.6279 23.4983 75.7528 21.5735L135.281 30.3598C135.26 30.5831 135.23 30.8835 135.192 31.2547C135.102 32.1386 134.962 33.4241 134.767 35.0283C134.377 38.2369 133.766 42.7192 132.88 47.8124C131.107 58.0088 128.242 70.6156 123.87 80.3571C119.055 91.0804 109.304 98.2342 99.8946 103.721C96.9974 105.41 94.1598 106.927 91.51 108.344C89.8456 109.233 88.2553 110.083 86.7708 110.912C82.9702 113.032 79.8532 115.015 78.2229 117.098C76.5756 119.18 75.3529 122.584 74.4318 126.441C73.506 130.317 72.8691 134.723 72.4308 138.868C71.9922 143.014 71.7514 146.91 71.6202 149.768C71.5545 151.197 71.5163 152.368 71.4944 153.181C71.4869 153.46 71.4814 153.696 71.4773 153.887L0.837876 144.05C0.290531 129.696 -0.135752 115.114 4.1553 101.559C8.48711 87.8765 18.5013 75.1724 32.3348 71.697Z" fill="white" stroke="#FAFAFA"/>
<path d="M109.504 52.6508C109.504 52.7201 102.994 51.9582 94.9602 50.8501C86.9263 49.742 80.416 48.7724 80.416 48.7031C80.416 48.6338 86.9263 49.3957 94.9602 50.5038C102.994 51.5427 109.504 52.5123 109.504 52.6508Z" fill="#FAFAFA"/>
<path d="M108.674 58.4692C108.674 58.5384 102.164 57.7766 94.1301 56.6685C86.0962 55.5603 79.5859 54.5907 79.5859 54.5215C79.5859 54.4522 86.0962 55.214 94.1301 56.3222C102.233 57.361 108.744 58.3306 108.674 58.4692Z" fill="#FAFAFA"/>
<path d="M106.042 64.4252C106.042 64.4945 99.5312 63.7326 91.4973 62.6245C83.4634 61.5164 76.9531 60.5468 76.9531 60.4775C76.9531 60.4083 83.4634 61.1701 91.4973 62.2782C99.5312 63.3171 106.042 64.2867 106.042 64.4252Z" fill="#FAFAFA"/>
<path d="M101.196 70.3808C101.196 70.45 94.6855 69.6882 86.6516 68.5801C78.6177 67.4719 72.1074 66.5023 72.1074 66.4331C72.1074 66.3638 78.6177 67.1257 86.6516 68.2338C94.6855 69.3419 101.196 70.3115 101.196 70.3808Z" fill="#FAFAFA"/>
<path d="M93.436 76.4067C93.436 76.4759 86.9258 75.7141 78.8918 74.606C70.8579 73.4978 64.3477 72.5282 64.3477 72.459C64.3477 72.3897 70.8579 73.1515 78.8918 74.2597C86.9258 75.2985 93.436 76.2681 93.436 76.4067Z" fill="#FAFAFA"/>
<path d="M122.526 54.5902C122.526 54.6595 120.933 54.5209 118.925 54.1747C116.985 53.8284 115.393 53.4821 115.393 53.4128C115.393 53.3436 116.986 53.4821 118.994 53.8284C121.002 54.1054 122.526 54.4517 122.526 54.5902Z" fill="#FAFAFA"/>
<path d="M122.251 59.7845C122.251 59.8538 120.658 59.7153 118.649 59.369C116.71 59.0227 115.117 58.6764 115.117 58.6072C115.117 58.5379 116.71 58.6764 118.719 59.0227C120.727 59.2997 122.32 59.646 122.251 59.7845Z" fill="#FAFAFA"/>
<path d="M120.516 66.9869C120.516 67.0561 118.923 66.9176 116.915 66.5713C114.976 66.225 113.383 65.8788 113.383 65.8095C113.383 65.671 114.976 65.8788 116.984 66.225C118.923 66.5021 120.516 66.8484 120.516 66.9869Z" fill="#FAFAFA"/>
<path d="M117.954 73.0128C117.954 73.082 116.361 72.9435 114.352 72.5972C112.413 72.2509 110.82 71.9046 110.82 71.8354C110.82 71.6969 112.413 71.9046 114.422 72.2509C116.43 72.5972 117.954 72.9435 117.954 73.0128Z" fill="#FAFAFA"/>
<path d="M112.483 78.8301C112.483 78.8994 110.89 78.7609 108.882 78.4146C106.943 78.0683 105.35 77.722 105.35 77.6528C105.35 77.5142 106.943 77.722 108.951 78.0683C110.96 78.4146 112.483 78.7609 112.483 78.8301Z" fill="#FAFAFA"/>
<path d="M86.8542 83.6789C86.8542 83.7482 77.0195 82.5015 64.9686 80.7701C52.9177 79.0386 43.1523 77.5842 43.1523 77.515C43.1523 77.4457 52.987 78.6923 65.0379 80.4238C77.0888 82.1552 86.8542 83.6097 86.8542 83.6789Z" fill="#FAFAFA"/>
<path d="M81.7995 89.843C81.7995 89.843 81.661 89.843 81.3147 89.7737C80.9684 89.7045 80.4836 89.6352 79.9295 89.566C78.6829 89.3582 76.9514 89.1504 74.8737 88.8041C70.5797 88.1115 64.6928 87.2112 58.1825 86.2416C51.6722 85.2027 45.7853 84.2331 41.5606 83.5405C39.4828 83.1942 37.7514 82.9172 36.5047 82.6402C35.8814 82.5016 35.4659 82.4324 35.1196 82.3631C34.7733 82.2939 34.6348 82.2246 34.6348 82.2246C34.6348 82.2246 34.7733 82.2246 35.1196 82.2939C35.4659 82.3631 35.9507 82.4324 36.5047 82.5016C37.7514 82.7094 39.4828 82.9172 41.5606 83.2635C45.8546 83.9561 51.7415 84.8564 58.2518 85.826C64.762 86.8649 70.5797 87.8345 74.8737 88.5271C76.9514 88.8734 78.6829 89.1504 79.9295 89.3582C80.4836 89.4274 80.9684 89.566 81.3147 89.6352C81.5917 89.7737 81.7995 89.7737 81.7995 89.843Z" fill="#FAFAFA"/>
<path d="M72.658 95.4528C72.7273 95.5221 72.0347 95.4528 70.8573 95.3143C69.6799 95.1758 68.0177 94.8988 65.8707 94.6217C61.646 93.9984 55.8976 93.1673 49.5258 92.1285C43.1541 91.1588 37.3364 90.1892 33.1809 89.4966C31.1032 89.1504 29.441 88.8733 28.2636 88.6656C27.7095 88.5963 27.294 88.4578 26.9477 88.3885C26.6707 88.3193 26.4629 88.3193 26.4629 88.25C26.4629 88.25 26.6014 88.25 26.9477 88.3193C27.294 88.3885 27.7095 88.4578 28.3329 88.527C29.5795 88.7348 31.2417 88.9426 33.3194 89.2196C37.5442 89.8429 43.2926 90.7433 49.6643 91.7129C56.0361 92.7518 61.7845 93.6521 66.0092 94.2754C69.6799 94.968 71.7576 95.2451 72.658 95.4528Z" fill="#FAFAFA"/>
<path d="M103.341 87.0718C103.341 87.1411 101.748 87.0026 99.7392 86.6563C97.8 86.31 96.207 85.9637 96.207 85.8945C96.207 85.7559 97.8 85.9637 99.8084 86.31C101.748 86.587 103.341 86.9333 103.341 87.0718Z" fill="#FAFAFA"/>
<path d="M96.2762 91.0201C96.2762 91.0893 94.6832 90.9508 92.6747 90.6045C90.7355 90.2583 89.1426 89.912 89.1426 89.8427C89.1426 89.7042 90.7355 89.912 92.744 90.2583C94.6832 90.5353 96.2762 90.8816 96.2762 91.0201Z" fill="#FAFAFA"/>
<path d="M86.7879 97.5997C86.7879 97.6689 85.1949 97.5304 83.1865 97.1841C81.2472 96.8378 79.6543 96.4916 79.6543 96.4223C79.6543 96.2838 81.2472 96.4916 83.2557 96.8378C85.1949 97.1841 86.7879 97.5304 86.7879 97.5997Z" fill="#FAFAFA"/>
<path d="M68.6404 108.058C68.6404 108.127 56.5203 106.395 41.6298 104.11C26.7393 101.824 14.6191 99.8852 14.6191 99.7466C14.6191 99.6774 26.7393 101.409 41.6298 103.694C56.5203 105.98 68.6404 107.988 68.6404 108.058Z" fill="#FAFAFA"/>
<path d="M61.3698 121.147C61.3698 121.216 57.3528 120.662 52.5048 119.901C47.6567 119.139 43.709 118.377 43.709 118.308C43.709 118.238 47.726 118.792 52.574 119.554C57.4221 120.316 61.3698 121.078 61.3698 121.147Z" fill="#FAFAFA"/>
<path d="M157.113 158H62.887C56.5086 158 51 154.306 51 149.833V61.1667C51 56.6944 56.2187 53 62.887 53H157.113C163.491 53 169 56.6944 169 61.1667V149.833C169 154.306 163.781 158 157.113 158Z" fill="#FAFAFA"/>
<path d="M149.89 194.681H58.7337C56.8346 194.681 55.1465 193.204 55.1465 191.094C55.1465 189.195 56.6236 187.507 58.7337 187.507H149.89C156.221 187.507 161.285 182.443 161.285 176.112V175.901C161.285 169.571 156.221 164.507 149.89 164.507H58.7337C56.8346 164.507 55.1465 163.03 55.1465 160.92C55.1465 159.021 56.6236 157.333 58.7337 157.333H149.89C160.019 157.333 168.459 165.562 168.459 175.901V176.112C168.248 186.452 160.019 194.681 149.89 194.681Z" fill="#E4002B"/>
<path d="M159.175 164.717C158.964 164.717 158.753 164.717 158.331 164.506C156.854 164.084 156.221 162.607 156.643 161.13L181.964 77.5696H43.5413L59.5782 161.341C59.7892 162.818 58.9451 164.084 57.4681 164.506C55.991 164.717 54.7249 163.873 54.3029 162.396L37 72.5054H188.928L161.707 162.818C161.285 163.873 160.23 164.717 159.175 164.717Z" fill="#E4002B"/>
<path d="M185.342 77.7805C185.131 77.7805 184.709 77.7805 184.498 77.5695C183.021 77.1475 182.388 75.4594 182.81 74.1933L193.361 44.8628H218.049C219.526 44.8628 220.792 46.1289 220.792 47.6059C220.792 49.083 219.526 50.3491 218.049 50.3491H196.948L187.663 76.0924C187.452 77.1475 186.397 77.7805 185.342 77.7805Z" fill="#E4002B"/>
<path d="M239.568 52.0377H218.045C215.512 52.0377 213.613 50.1386 213.613 47.6065C213.613 45.0744 215.512 43.1753 218.045 43.1753H239.568C242.1 43.1753 243.999 45.0744 243.999 47.6065C243.999 50.1386 242.1 52.0377 239.568 52.0377Z" fill="#E4002B"/>
<path d="M140.816 162.608C140.605 162.608 140.605 162.608 140.394 162.608C138.917 162.397 138.073 160.92 138.284 159.442L152.422 77.9923C152.633 76.5152 154.11 75.6712 155.587 75.8822C157.064 76.0932 157.908 77.5703 157.697 79.0473L143.559 160.498C143.137 161.553 142.082 162.608 140.816 162.608Z" fill="#E4002B"/>
<path d="M120.772 160.708C119.084 160.708 118.029 159.442 118.029 157.965L123.516 77.3588C123.516 75.8817 124.782 74.8267 126.259 74.8267C127.736 74.8267 128.791 76.0927 128.791 77.5698L123.516 158.176C123.305 159.653 122.25 160.708 120.772 160.708Z" fill="#E4002B"/>
<path d="M79.2023 162.607C77.9362 162.607 76.8812 161.763 76.6702 160.286L63.7985 78.8361C63.5875 77.3591 64.6425 76.093 65.9086 75.882C67.3857 75.671 68.6518 76.726 68.8628 77.9921L81.7344 159.442C81.9454 160.919 80.8904 162.185 79.6243 162.396C79.4133 162.607 79.4133 162.607 79.2023 162.607Z" fill="#E4002B"/>
<path d="M100.516 160.708C99.0389 160.708 97.9839 159.653 97.7729 158.176L93.7637 77.5698C93.7637 76.0927 94.8187 74.8267 96.2958 74.8267C97.7729 74.8267 99.0389 75.8817 99.0389 77.3588L103.048 157.965C103.259 159.442 101.993 160.708 100.516 160.708Z" fill="#E4002B"/>
<path d="M165.929 134.121H53.4599C51.9829 134.121 50.7168 132.855 50.7168 131.378C50.7168 129.901 51.9829 128.635 53.4599 128.635H165.929C167.406 128.635 168.672 129.901 168.672 131.378C168.672 133.066 167.406 134.121 165.929 134.121Z" fill="#E4002B"/>
<path d="M176.69 105.846H49.0283C47.5512 105.846 46.2852 104.58 46.2852 103.103C46.2852 101.625 47.5512 100.359 49.0283 100.359H176.479C177.956 100.359 179.222 101.625 179.222 103.103C179.222 104.791 177.956 105.846 176.69 105.846Z" fill="#E4002B"/>
<rect x="85" y="10" width="56" height="56" rx="28" fill="#49BE7B"/>
<path d="M104.666 37.9998L112.999 46.3332L129.666 29.6665" stroke="#FAFAFA" stroke-width="2" stroke-linecap="round" stroke-linejoin="round"/>
<path opacity="0.3" d="M113.001 37.9998L121.334 29.6665M96.334 37.9998L104.667 46.3332L96.334 37.9998Z" stroke="#FAFAFA" stroke-width="2" stroke-linecap="round" stroke-linejoin="round"/>
<path d="M24.1 76.815C22.3 70.415 14 71.015 14 71.015L14.2 75.415C19 74.615 22 80.215 22 80.215L24.1 76.815Z" fill="#FAFAFA"/>
<path d="M162.345 17.9111C172.061 15.4276 171.454 2.82438 171.454 2.82438L164.698 3.05172C165.733 10.3714 157.103 14.6522 157.103 14.6522L162.345 17.9111Z" fill="#FAFAFA"/>
<path d="M185 26C180.5 26.5 180 32.1 180 32.1L183 32.5C183 29.2 187.1 27.8 187.1 27.8L185 26Z" fill="#7597BA"/>
<path d="M200.8 95.4C201.5 90.9 196.1 89 196.1 89L195 91.8C198.2 92.6 198.5 96.9 198.5 96.9L200.8 95.4Z" fill="#7597BA"/>
<path d="M48.8 10.4C49.5 5.89999 44.1 4 44.1 4L43 6.79999C46.2 7.59999 46.5 11.9 46.5 11.9L48.8 10.4Z" fill="#7597BA"/>
<path d="M212.8 14C217.3 14.3 218.7 8.79999 218.7 8.79999L215.8 8C215.3 11.3 211 11.9 211 11.9L212.8 14Z" fill="#7597BA"/>
<path d="M214.36 79.1401C214.36 79.4201 211.98 79.7001 209.18 79.7001C206.24 79.7001 204 79.4201 204 79.1401C204 78.8601 206.38 78.5801 209.18 78.5801C211.98 78.7201 214.36 78.8601 214.36 79.1401Z" fill="#E4002B"/>
<path d="M219.82 65C220.1 65 220.38 67.38 220.38 70.32C220.38 73.26 220.1 75.64 219.82 75.64C219.54 75.64 219.26 73.26 219.26 70.32C219.26 67.38 219.54 65 219.82 65Z" fill="#E4002B"/>
<path d="M225.699 78.8603C225.699 78.5803 228.079 78.3003 230.879 78.3003C233.819 78.3003 236.059 78.5803 236.059 78.8603C236.059 79.1403 233.679 79.4203 230.879 79.4203C228.079 79.4203 225.699 79.1403 225.699 78.8603Z" fill="#E4002B"/>
<path d="M220.24 92.9999C219.96 92.9999 219.68 90.6199 219.68 87.6799C219.68 84.7399 219.96 82.3599 220.24 82.3599C220.52 82.3599 220.8 84.7399 220.8 87.6799C220.66 90.6199 220.52 92.9999 220.24 92.9999Z" fill="#E4002B"/>
<path d="M228.64 86.9798C228.36 87.1198 227.38 86.2798 226.4 85.1598C225.42 83.8998 224.72 82.7798 225 82.6398C225.28 82.4998 226.26 83.3398 227.24 84.4598C228.08 85.5798 228.78 86.6998 228.64 86.9798Z" fill="#E4002B"/>
<path d="M228.079 70.8801C228.219 71.0201 227.519 72.1402 226.539 73.1202C225.419 74.2402 224.439 74.9401 224.299 74.6601C224.159 74.5201 224.859 73.4002 225.839 72.4202C226.819 71.4402 227.939 70.7401 228.079 70.8801Z" fill="#E4002B"/>
<path d="M216.181 74.9404C216.041 75.2204 215.061 74.6605 214.081 73.8205C213.101 72.9805 212.401 72.1404 212.541 71.8604C212.681 71.5804 213.661 72.1405 214.641 72.9805C215.621 73.9605 216.321 74.8004 216.181 74.9404Z" fill="#E4002B"/>
<path d="M215.76 82.0803C215.9 82.2203 215.34 83.3403 214.36 84.3203C213.38 85.4403 212.4 86.1403 212.26 85.8603C212.12 85.7203 212.68 84.6003 213.66 83.6203C214.5 82.6403 215.48 81.9403 215.76 82.0803Z" fill="#E4002B"/>
<path d="M20.62 30.1303C20.62 30.3903 18.41 30.6504 15.81 30.6504C13.08 30.6504 11 30.3903 11 30.1303C11 29.8703 13.21 29.6104 15.81 29.6104C18.54 29.7404 20.62 29.8703 20.62 30.1303Z" fill="#E4002B"/>
<path d="M25.8208 17C26.0808 17 26.3408 19.21 26.3408 21.94C26.3408 24.67 26.0808 26.88 25.8208 26.88C25.5608 26.88 25.3008 24.67 25.3008 21.94C25.3008 19.21 25.5608 17 25.8208 17Z" fill="#E4002B"/>
<path d="M31.2832 29.8701C31.2832 29.6101 33.4932 29.3501 36.0932 29.3501C38.8232 29.3501 40.9032 29.6101 40.9032 29.8701C40.9032 30.1301 38.6932 30.3901 36.0932 30.3901C33.4932 30.3901 31.2832 30.1301 31.2832 29.8701Z" fill="#E4002B"/>
<path d="M26.2114 43.0001C25.9514 43.0001 25.6914 40.7901 25.6914 38.0601C25.6914 35.3301 25.9514 33.1201 26.2114 33.1201C26.4714 33.1201 26.7314 35.3301 26.7314 38.0601C26.6014 40.7901 26.4714 43.0001 26.2114 43.0001Z" fill="#E4002B"/>
<path d="M34.0081 37.4099C33.7481 37.5399 32.8381 36.7599 31.9281 35.7199C31.0181 34.5499 30.3681 33.5099 30.6281 33.3799C30.8881 33.2499 31.7981 34.0299 32.7081 35.0699C33.4881 36.1099 34.1381 37.1499 34.0081 37.4099Z" fill="#E4002B"/>
<path d="M33.4914 22.4599C33.6214 22.5899 32.9714 23.6299 32.0614 24.5399C31.0214 25.5799 30.1114 26.2299 29.9814 25.9699C29.8514 25.8399 30.5014 24.7999 31.4114 23.8899C32.3214 22.9799 33.3614 22.3299 33.4914 22.4599Z" fill="#E4002B"/>
<path d="M22.4395 26.2303C22.3095 26.4903 21.3995 25.9704 20.4895 25.1904C19.5795 24.4104 18.9295 23.6304 19.0595 23.3704C19.1895 23.1104 20.0995 23.6304 21.0095 24.4104C21.9195 25.3204 22.5695 26.1003 22.4395 26.2303Z" fill="#E4002B"/>
<path d="M22.0491 32.8598C22.1791 32.9898 21.6591 34.0298 20.7491 34.9398C19.8391 35.9798 18.9291 36.6298 18.7991 36.3698C18.6691 36.2398 19.1891 35.1998 20.0991 34.2898C20.8791 33.3798 21.7891 32.7298 22.0491 32.8598Z" fill="#E4002B"/>
</svg>
