<svg xmlns="http://www.w3.org/2000/svg" style="position:absolute; width: 0; height: 0"><defs><clipPath id="checked-a"> <path fill="currentColor" d="M0 0h39v39H0z"></path></clipPath><clipPath id="cross2-a"> <path fill="currentColor" transform="translate(.2 .2)" d="M0 0h27.6v27.6H0z"></path></clipPath><clipPath id="graphic-design-a"> <path fill="currentColor" d="M0 0h82v82H0z"></path></clipPath><clipPath id="green-factory-a"> <path fill="currentColor" d="M0 0h29v29H0z"></path></clipPath><clipPath id="location-a"> <path fill="currentColor" d="M0 0h56v56H0z"></path></clipPath><clipPath id="package-a"> <path fill="currentColor" d="M0 0h75.915v77H0z"></path></clipPath><clipPath id="phone2-a"> <path fill="currentColor" transform="translate(0 .5)" d="M0 0h23v24H0z"></path></clipPath><clipPath id="prices-a"> <path fill="currentColor" d="M0 0h73v73H0z"></path></clipPath><clipPath id="saving-a"> <path fill="currentColor" d="M0 0h46v46H0z"></path></clipPath><clipPath id="shipping-a"> <path fill="currentColor" d="M0 0h39v39H0z"></path></clipPath><clipPath id="waiting-a"> <path fill="currentColor" d="M0 0h38v38H0z"></path></clipPath></defs><symbol viewBox="0 0 73 73" id="i-3d-printer"><path d="M6.772 36.62c-.59 0-1.069.478-1.069 1.07v19.912c0 .59.479 1.069 1.07 1.069h59.455c.59 0 1.069-.479 1.069-1.07V6.845c0-.591-.479-1.07-1.07-1.07H6.773c-.59 0-1.069.479-1.069 1.07V33.03a1.07 1.07 0 1 0 2.139 0v-8.832h16.895v2.464c0 .59.48 1.07 1.07 1.07h3.582l2.57 5.78c.171.387.554.636.976.636h2.496v1.242a1.07 1.07 0 1 0 2.138 0v-1.242h2.495c.423 0 .806-.25.978-.636l2.569-5.78h3.582c.59 0 1.07-.48 1.07-1.07v-2.495h16.895v32.365H48.263V41.95c0-.59-.48-1.07-1.07-1.07H25.807c-.59 0-1.07.48-1.07 1.07v14.583H7.842V37.69c0-.59-.479-1.07-1.07-1.07zm17.965-14.56H7.842v-3.565h16.895v3.564zm14.633 9.949h-5.74l-1.9-4.278h9.54l-1.9 4.278zm7.823-19.248H42.34a1.07 1.07 0 1 0 0 2.138h3.784v10.694H26.876V14.899h10.805a1.07 1.07 0 1 0 0-2.138H25.806c-.59 0-1.07.478-1.07 1.07v2.525H7.842V7.913h57.316v8.412H48.263V13.83c0-.59-.48-1.07-1.07-1.07zm1.07 9.267v-3.564h16.895v3.564H48.263zm-14.384 20.99h12.245v13.514H33.879V43.018zm-7.003 0h4.864v13.514h-4.864V43.018z" fill="currentColor"></path><path d="M69.792.07H3.208A3.212 3.212 0 0 0 0 3.278v66.441a3.212 3.212 0 0 0 3.208 3.208h7.129a3.212 3.212 0 0 0 3.208-3.208v-4.277c0-.59.48-1.07 1.07-1.07h30.073a1.07 1.07 0 0 0 0-2.138H14.614a3.212 3.212 0 0 0-3.208 3.208v4.277c0 .59-.48 1.07-1.07 1.07H3.209c-.59 0-1.07-.48-1.07-1.07V3.278c0-.59.48-1.07 1.07-1.07h66.584c.59 0 1.07.48 1.07 1.07v66.441c0 .59-.48 1.07-1.07 1.07h-7.129c-.59 0-1.07-.48-1.07-1.07v-4.277a3.212 3.212 0 0 0-3.207-3.208h-9.038a1.07 1.07 0 1 0 0 2.139h9.038c.59 0 1.07.48 1.07 1.069v4.277a3.212 3.212 0 0 0 3.207 3.208h7.129A3.212 3.212 0 0 0 73 69.72V3.278A3.212 3.212 0 0 0 69.792.07z" fill="currentColor"></path></symbol><symbol viewBox="0 0 390 157" id="i-404"><path d="M69.938 146v-35h-59.6V94.2l59-84.6h17.4V95h18.4l-5 16h-13.4v35h-16.8zm0-51V38.2L30.337 95h39.6zM344.938 146v-35h-59.6V94.2l59-84.6h17.4V95h18.4l-5 16h-13.4v35h-16.8zm0-51V38.2l-39.6 56.8h39.6z" fill="currentColor"></path><circle cx="195" cy="79" r="69" fill="currentColor"></circle><path d="M223.68 56.553h-56.358a1.245 1.245 0 0 0-1.244 1.244v7.824a1.236 1.236 0 0 0 .364.88 1.25 1.25 0 0 0 .88.364h2.58l4.094 51.578a6.553 6.553 0 0 0 6.5 6.004h30.01a6.55 6.55 0 0 0 6.5-6.004l4.094-51.578h2.58a1.244 1.244 0 0 0 1.244-1.244v-7.824a1.236 1.236 0 0 0-.364-.88 1.25 1.25 0 0 0-.88-.364zm-11.079 3.306a4.869 4.869 0 0 1-3.199 4.554c-.085.02-.168.05-.247.089a4.809 4.809 0 0 1-2.387.08 1.244 1.244 0 0 0-1.502 1.217v15.032a.952.952 0 0 1-.3.697.933.933 0 0 1-.711.262 1.058 1.058 0 0 1-.907-1.083V70.21a4.278 4.278 0 0 0-1.269-3.057 4.502 4.502 0 0 0-3.219-1.3h-.028a5.289 5.289 0 0 1-5.083-6.816h18.781c.047.27.071.545.071.82zm-44.035-.818h22.62a7.78 7.78 0 0 0-.155 1.507 7.729 7.729 0 0 0 1.006 3.829h-23.471V59.04zm45.96 59.205a4.052 4.052 0 0 1-4.02 3.713h-30.01a4.052 4.052 0 0 1-4.02-3.713l-4.08-51.381h21.874a7.861 7.861 0 0 0 4.601 1.48 1.958 1.958 0 0 1 1.449.577 1.798 1.798 0 0 1 .536 1.29v10.494a3.513 3.513 0 0 0 3.265 3.569c.063 0 .124.005.186.005a3.422 3.422 0 0 0 2.372-.948 3.466 3.466 0 0 0 1.074-2.501V67.18h.015c.723 0 1.441-.106 2.133-.315h8.705l-4.08 51.38zm7.91-53.87h-8.919a7.143 7.143 0 0 0 1.521-5.331h7.398v5.332z" fill="currentColor"></path><path d="M189.004 39.645c.113-5.758 5.664-10.248 5.9-10.436a.957.957 0 0 1 1.193 0c.236.188 5.786 4.677 5.9 10.426a6.507 6.507 0 0 1-6.496 6.689 6.507 6.507 0 0 1-6.497-6.68zm6.497 4.765a4.59 4.59 0 0 0 4.582-4.728c-.076-3.836-3.238-7.193-4.584-8.45-1.346 1.255-4.506 4.604-4.582 8.459a4.59 4.59 0 0 0 4.584 4.719z" fill="currentColor" stroke="currentColor" stroke-width=".2"></path></symbol><symbol viewBox="0 0 114 15" id="i-arrow-link"><path d="M0 7.5h112.5m0 0L106 1m6.5 6.5L106 14" stroke="currentColor" stroke-width="2"></path></symbol><symbol viewBox="0 0 26 18" id="i-burger"><path stroke="currentColor" stroke-width="2" d="M26 1H0M26 9H5M26 17H10"></path></symbol><symbol viewBox="0 0 23 25" id="i-calc"><path fill-rule="evenodd" clip-rule="evenodd" d="M2.654.5h17.692C21.81.5 23 1.742 23 3.27v18.46c0 1.528-1.19 2.77-2.654 2.77H2.654C1.19 24.5 0 23.258 0 21.73V3.27C0 1.741 1.19.5 2.654.5zm0 22.154h7.961v-9.23H1.77v8.307c0 .509.397.923.885.923zm-.885-11.077h8.846v-9.23H2.654c-.488 0-.885.413-.885.922v8.308zm18.577 11.077c.488 0 .885-.414.885-.923v-8.308h-8.846v9.23h7.961zm-7.961-11.077h8.846V3.269c0-.509-.397-.923-.885-.923h-7.961v9.23zM7.077 6.038h.92c.488 0 .884.414.884.923 0 .51-.396.924-.885.924h-.919v.959c0 .51-.396.923-.885.923-.488 0-.884-.413-.884-.923v-.96h-.92c-.488 0-.884-.413-.884-.923s.396-.923.885-.923h.919V5.08c0-.51.396-.923.884-.923.489 0 .885.413.885.923v.96zm11.533 0h-3.608c-.489 0-.885.414-.885.923 0 .51.396.923.885.923h3.608c.488 0 .884-.413.884-.923s-.396-.923-.884-.923zm-3.608 12.409h3.608c.488 0 .884.413.884.923s-.396.923-.884.923h-3.608c-.489 0-.885-.414-.885-.923 0-.51.396-.924.885-.924zm3.608-2.663h-3.608c-.489 0-.885.414-.885.923 0 .51.396.924.885.924h3.608c.488 0 .884-.414.884-.924s-.396-.923-.884-.923zM8.093 17.36l-.65.679.65.678a.952.952 0 0 1 0 1.305.859.859 0 0 1-1.25 0l-.65-.678-.65.678a.859.859 0 0 1-1.252 0 .952.952 0 0 1 0-1.305l.65-.678-.65-.679a.952.952 0 0 1 0-1.305.859.859 0 0 1 1.251 0l.65.678.65-.678a.859.859 0 0 1 1.251 0 .952.952 0 0 1 0 1.305z" fill="currentColor"></path></symbol><symbol viewBox="0 0 39 39" id="i-checked"><g clip-path="url(#checked-a)"><path d="M11.069 16.407a1.435 1.435 0 0 0-2.031-.008 1.435 1.435 0 0 0-.008 2.031l6.803 6.851c.27.271.63.423 1.012.423h.008c.382 0 .74-.152 1.012-.415L38.578 4.688a1.435 1.435 0 1 0-2.023-2.04l-7.322 7.274a16.463 16.463 0 0 0-12.779-6.079A16.378 16.378 0 0 0 4.417 9.085a16.375 16.375 0 0 0-3.434 5.609 16.393 16.393 0 0 0-.94 6.803C.61 29.6 7.15 36.147 15.251 36.73c.399.032.805.04 1.204.04 3.768 0 7.408-1.274 10.34-3.648a16.426 16.426 0 0 0 6.126-12.819c0-.788-.645-1.434-1.434-1.434-.788 0-1.433.646-1.433 1.434 0 .701-.056 1.402-.16 2.095-1.067 6.931-7.409 11.966-14.435 11.464-6.684-.478-12.086-5.879-12.556-12.57-.27-3.825 1.012-7.466 3.61-10.254a13.65 13.65 0 0 1 9.941-4.326c4.207 0 8.158 1.952 10.732 5.25L16.86 22.238l-5.792-5.831z" fill="currentColor"></path></g></symbol><symbol viewBox="0 0 32 32" id="i-cloud"><path d="M24.34 10.622c-.44 0-.873.04-1.294.109-1.05-3.432-4.3-5.931-8.152-5.931-4.702 0-8.512 3.725-8.512 8.318 0 .41.032.813.092 1.21a5.707 5.707 0 0 0-.687-.043C2.59 14.285 0 16.815 0 19.94 0 23.065 2.59 25.6 5.787 25.6H12.8v-6.4h-4l7.2-8 7.2 8h-4v6.4h5.14c4.23 0 7.66-3.354 7.66-7.488 0-4.138-3.43-7.49-7.66-7.49z" fill="currentColor"></path></symbol><symbol viewBox="0 0 78 78" id="i-cmyk"><path d="M74.189 20.239l-.014-.019L62.069 4.704a1.523 1.523 0 0 0-2.402 0l-6.09 7.802-6.087-7.802a1.524 1.524 0 0 0-2.402 0l-6.09 7.802-6.086-7.802a1.524 1.524 0 0 0-2.402 0l-6.089 7.8-6.088-7.8a1.524 1.524 0 0 0-2.403 0l-7.693 9.86a1.524 1.524 0 0 0 2.403 1.875l6.492-8.321 6.03 7.726c.034.049.07.095.11.14l4.612 5.908c.034.054.07.105.112.154a14.105 14.105 0 0 1 3.22 8.965c0 7.766-6.318 14.084-14.085 14.084-7.766 0-14.084-6.318-14.084-14.084 0-.973.1-1.944.296-2.887a1.524 1.524 0 0 0-2.983-.621A17.243 17.243 0 0 0 0 31.01c0 9.446 7.685 17.131 17.132 17.131 2.604 0 5.074-.585 7.286-1.629a17.188 17.188 0 0 0 7.292 1.63c2.605 0 5.075-.586 7.287-1.63a17.188 17.188 0 0 0 7.292 1.63c2.605 0 5.075-.586 7.287-1.63a17.188 17.188 0 0 0 7.292 1.63C70.315 48.142 78 40.456 78 31.01c0-3.913-1.353-7.736-3.811-10.772zM31.71 45.096c-1.368 0-2.73-.203-4.035-.592 4.008-3.138 6.588-8.02 6.588-13.493a17.16 17.16 0 0 0-3.817-10.782 1.44 1.44 0 0 0-.066-.09l-4.027-5.159 5.357-6.862 10.873 13.936c.016.023.033.044.05.066a14.112 14.112 0 0 1 3.162 8.89c0 7.767-6.318 14.086-14.085 14.086zm14.58 0c-1.37 0-2.731-.203-4.036-.592 4.008-3.138 6.588-8.02 6.588-13.493 0-3.914-1.354-7.738-3.813-10.775l-.012-.016-4.086-5.238 5.358-6.864 10.873 13.936.05.066a14.112 14.112 0 0 1 3.162 8.89c0 7.767-6.318 14.086-14.085 14.086zm14.578 0c-1.368 0-2.73-.203-4.035-.592 4.008-3.138 6.588-8.02 6.588-13.493 0-3.914-1.354-7.738-3.813-10.775l-.012-.016-4.086-5.238 5.358-6.864L71.74 22.05c.017.024.035.046.053.069a14.113 14.113 0 0 1 3.161 8.89c0 7.767-6.319 14.086-14.085 14.086zM21.233 67.708c-.842 0-1.524.682-1.524 1.523 0 .885-.72 1.604-1.604 1.604h-1.947c-.884 0-1.603-.72-1.603-1.604v-5.933c0-.884.719-1.604 1.603-1.604h1.947c.885 0 1.604.72 1.604 1.604a1.524 1.524 0 0 0 3.047 0 4.656 4.656 0 0 0-4.65-4.65h-1.948a4.656 4.656 0 0 0-4.65 4.65v5.933a4.656 4.656 0 0 0 4.65 4.65h1.947a4.656 4.656 0 0 0 4.65-4.65c0-.841-.681-1.523-1.522-1.523zM37.563 58.764a1.523 1.523 0 0 0-1.66.33l-3.239 3.239-3.24-3.24a1.523 1.523 0 0 0-2.6 1.078v12.188a1.524 1.524 0 0 0 3.047 0v-8.51l1.716 1.716a1.524 1.524 0 0 0 2.154 0l1.716-1.716v8.51a1.524 1.524 0 0 0 3.047 0V60.17c0-.616-.371-1.172-.94-1.407zM53.437 59.094a1.523 1.523 0 0 0-2.155 0l-3.239 3.239-3.24-3.24a1.524 1.524 0 0 0-2.154 2.155l3.87 3.87v7.24a1.523 1.523 0 0 0 3.047 0v-7.24l3.87-3.87a1.523 1.523 0 0 0 0-2.154zM61.006 66.265l5.016-5.017a1.523 1.523 0 1 0-2.154-2.154l-3.493 3.493V60.17a1.523 1.523 0 0 0-3.047 0V72.359a1.523 1.523 0 0 0 3.047 0v-2.416l3.493 3.493c.298.297.687.446 1.077.446a1.524 1.524 0 0 0 1.077-2.6l-5.016-5.017z" fill="currentColor"></path><path d="M6.017 19.887a1.523 1.523 0 0 0-2.138.266l-.053.068a1.524 1.524 0 0 0 1.201 2.46h.001a1.52 1.52 0 0 0 1.229-.623l.025-.032a1.523 1.523 0 0 0-.265-2.139z" fill="currentColor"></path></symbol><symbol viewBox="0 0 88 88" id="i-conversation"><g fill="currentColor"><path d="M58.063 49.844c-.863 0-1.563.7-1.563 1.562v10.782c0 4.307-3.505 7.812-7.813 7.812h-16.87c-.862 0-1.561.699-1.562 1.561l-.002 3.107-3.73-3.73A1.563 1.563 0 0 0 25.09 70H14.938c-4.308 0-7.813-3.505-7.813-7.813V38.126c0-4.308 3.505-7.813 7.813-7.813h15.78a1.562 1.562 0 0 0 0-3.125h-15.78C8.907 27.188 4 32.094 4 38.126v24.063c0 6.03 4.907 10.937 10.938 10.937h9.352l6.418 6.417a1.562 1.562 0 0 0 2.667-1.103l.004-5.314h15.309c6.03 0 10.937-4.907 10.937-10.938v-10.78c0-.864-.7-1.563-1.563-1.563z"></path><path d="M61.29 0h-3.955c-12.522 0-22.71 10.188-22.71 22.71 0 12.523 10.188 22.71 22.71 22.71h3.955c1.954 0 3.889-.248 5.764-.738l5.841 5.838a1.562 1.562 0 0 0 2.668-1.105v-9.04a22.927 22.927 0 0 0 5.97-7.36A22.467 22.467 0 0 0 84 22.71C84 10.188 73.812 0 61.29 0zm11.77 38.365a1.563 1.563 0 0 0-.623 1.248v6.031l-3.823-3.821a1.563 1.563 0 0 0-1.564-.389c-1.86.572-3.797.862-5.76.862h-3.955c-10.8 0-19.585-8.786-19.585-19.586 0-10.8 8.786-19.585 19.585-19.585h3.955c10.8 0 19.585 8.786 19.585 19.585 0 6.208-2.848 11.914-7.815 15.655z"></path><path d="M66.347 17.097c-.225-3.271-2.862-5.908-6.134-6.134a6.564 6.564 0 0 0-4.978 1.763 6.64 6.64 0 0 0-2.102 4.837 1.563 1.563 0 0 0 3.125 0c0-.978.394-1.885 1.11-2.552a3.492 3.492 0 0 1 5.862 2.301 3.474 3.474 0 0 1-2.715 3.657 2.957 2.957 0 0 0-2.33 2.898v3.754a1.563 1.563 0 0 0 3.125 0v-3.63c3.149-.76 5.261-3.64 5.037-6.894zM60.855 32.697a1.574 1.574 0 0 0-1.105-.458c-.41 0-.814.167-1.105.458-.29.29-.458.694-.458 1.104 0 .413.168.816.458 1.107.29.29.694.456 1.105.456.41 0 .814-.166 1.105-.456.29-.292.458-.694.458-1.107 0-.41-.168-.814-.458-1.104zM46.969 48.438H14a1.563 1.563 0 0 0 0 3.124h32.969a1.562 1.562 0 0 0 0-3.124zM48.073 57.645a1.574 1.574 0 0 0-1.104-.458c-.411 0-.814.168-1.105.458-.29.29-.458.694-.458 1.105 0 .41.167.814.458 1.105.29.29.694.458 1.105.458.41 0 .814-.168 1.104-.458.291-.29.458-.692.458-1.105 0-.41-.167-.814-.458-1.105zM40.823 57.188H14a1.563 1.563 0 0 0 0 3.124h26.823a1.562 1.562 0 1 0 0-3.124zM36.813 39.688H14a1.563 1.563 0 0 0 0 3.124h22.813a1.562 1.562 0 1 0 0-3.124z"></path></g></symbol><symbol viewBox="0 0 24 24" id="i-cross"><path d="M18 6L6 18M6 6l12 12" stroke="currentColor" stroke-width="2" stroke-linecap="round" stroke-linejoin="round"></path></symbol><symbol viewBox="0 0 28 28" id="i-cross2"><g clip-path="url(#cross2-a)" stroke="currentColor" stroke-width="2" stroke-linecap="round" stroke-linejoin="round"><path d="M20.899 7.1l-13.8 13.8M7.099 7.1l13.8 13.8"></path></g></symbol><symbol viewBox="0 0 72 80" id="i-delivery"><path d="M44 14.666a8 8 0 1 0-8 8 8.009 8.009 0 0 0 8-8zm-13.333 0a5.333 5.333 0 1 1 10.666 0 5.333 5.333 0 0 1-10.666 0z" fill="currentColor"></path><path d="M35.234 37.092a1.334 1.334 0 0 0 1.53 0 42.43 42.43 0 0 0 6.907-6.384c4.576-5.261 6.994-10.808 6.994-16.041a14.667 14.667 0 0 0-29.333 0c0 5.233 2.418 10.78 6.994 16.041a42.43 42.43 0 0 0 6.908 6.384zm.765-34.425a12.013 12.013 0 0 1 12 12c0 9.54-9.248 17.504-12 19.664-2.757-2.157-12-10.106-12-19.664a12.014 12.014 0 0 1 12-12z" fill="currentColor"></path><path d="M71.059 30.726l-20-6.154-.784 2.549L66.133 32 36 41.272 5.867 32l15.858-4.88-.784-2.548-20 6.154A1.333 1.333 0 0 0 0 32v36a1.333 1.333 0 0 0 .941 1.274l34.667 10.667c.255.079.529.079.784 0L71.06 69.274A1.333 1.333 0 0 0 72 68V32a1.333 1.333 0 0 0-.941-1.274zm-68.392 3.08l32 9.845v33.21l-32-9.846v-33.21zM37.333 76.86v-33.21l32-9.846v33.21l-32 9.846z" fill="currentColor"></path><path d="M25.335 53.846a1.333 1.333 0 0 0 1.333-1.333v-6.667a1.333 1.333 0 0 0-.941-1.274l-13.334-4.103a1.335 1.335 0 0 0-1.725 1.275v6.666a1.333 1.333 0 0 0 .941 1.275l13.333 4.102c.128.04.26.06.393.06zM24 50.708l-10.666-3.282v-3.877L24 46.831v3.877zM61.332 48.41v-6.666a1.332 1.332 0 0 0-1.726-1.275l-13.333 4.103a1.334 1.334 0 0 0-.941 1.274v6.667a1.333 1.333 0 0 0 1.725 1.274l13.334-4.102a1.333 1.333 0 0 0 .941-1.275zm-2.667-.984L48 50.708V46.83l10.666-3.282v3.877z" fill="currentColor"></path></symbol><symbol viewBox="0 0 16 21" id="i-document"><path d="M11.414.5H0v20h16V5.086L11.414.5zM14 18.5H2v-16h8.586L14 5.914V18.5zM4 13.45h5v-1.9H4v1.9zm0-4h8v-1.9H4v1.9z" fill="currentColor"></path></symbol><symbol viewBox="0 0 37 37" id="i-download"><path d="M30.063 27.75v4.625H6.938V27.75H4.624v4.625a2.313 2.313 0 0 0 2.313 2.313h23.125a2.312 2.312 0 0 0 2.312-2.313V27.75h-2.313zM30.063 16.188l-1.63-1.63-8.777 8.764V2.312h-2.312v21.01l-8.776-8.765-1.63 1.63L18.5 27.75l11.563-11.563z" fill="currentColor"></path></symbol><symbol viewBox="0 0 22 22" id="i-feedback"><path d="M15.536 11.872l-2.25 2.25a12.515 12.515 0 0 1-5.409-5.409l2.25-2.25-2.94-5.63-3.206 1.026A4.452 4.452 0 0 0 .932 6.995a18.407 18.407 0 0 0 4.984 9.088 18.407 18.407 0 0 0 9.089 4.984 4.452 4.452 0 0 0 5.136-3.049l1.025-3.206-5.63-2.94zm2.7 5.537a2.456 2.456 0 0 1-2.801 1.705A16.508 16.508 0 0 1 2.885 6.565 2.456 2.456 0 0 1 4.59 3.764l1.603-.513 1.482 2.836L6.463 7.3l-1.03 1.03.664 1.296a14.518 14.518 0 0 0 6.277 6.277l1.297.664 1.03-1.03 1.211-1.211 2.836 1.481-.512 1.603zM15 9h2a4.004 4.004 0 0 0-4-4v2a2.002 2.002 0 0 1 2 2zm4 0h2a8.01 8.01 0 0 0-8-8v2a6.007 6.007 0 0 1 6 6z" fill="currentColor"></path></symbol><symbol viewBox="0 0 82 82" id="i-graphic-design"><g clip-path="url(#graphic-design-a)" fill="currentColor"><path d="M19.256 29.685l-2.924-1.31a4.2 4.2 0 0 1-2.118-2.118l-1.31-2.924a1.202 1.202 0 0 0-2.193 0L9.4 26.257a4.2 4.2 0 0 1-2.118 2.118l-2.924 1.31a1.202 1.202 0 0 0 0 2.193l2.924 1.31A4.2 4.2 0 0 1 9.4 35.306l1.31 2.924a1.202 1.202 0 0 0 2.193 0l1.31-2.924a4.2 4.2 0 0 1 2.118-2.117l2.924-1.311a1.201 1.201 0 0 0 0-2.193zm-3.907 1.31a6.6 6.6 0 0 0-3.328 3.328l-.214.478-.213-.478a6.6 6.6 0 0 0-3.328-3.328l-.478-.213.477-.214a6.601 6.601 0 0 0 3.329-3.328l.213-.477.214.477a6.6 6.6 0 0 0 3.328 3.328l.478.213-.478.215z"></path><path d="M78.395 7.877h-32.38l-2.69-1.206a4.2 4.2 0 0 1-2.117-2.117L39.897 1.63a1.201 1.201 0 0 0-2.193 0l-1.31 2.924a4.2 4.2 0 0 1-2.118 2.117l-2.69 1.206H3.605A3.609 3.609 0 0 0 0 11.48v5.788a1.202 1.202 0 0 0 2.403 0v-5.788c0-.662.54-1.201 1.202-1.201h27.981l2.69 1.205a4.2 4.2 0 0 1 2.117 2.118l1.31 2.924a1.202 1.202 0 0 0 2.194 0l1.31-2.924a4.2 4.2 0 0 1 2.118-2.118l2.69-1.205h32.38c.663 0 1.202.539 1.202 1.201v43.537h-2.346l-2.726-1.222a4.2 4.2 0 0 1-2.118-2.117l-1.31-2.924a1.202 1.202 0 0 0-2.193 0l-1.31 2.924a4.2 4.2 0 0 1-2.118 2.117l-2.727 1.222h-1.291V17.872a1.2 1.2 0 0 0-1.202-1.202H44.363c-.663 0-1.201.538-1.201 1.202v8.103a1.202 1.202 0 0 0 2.403 0v-6.902h13.49v7.881h-3.68a1.202 1.202 0 0 0 0 2.404h3.68v4.851H53.4a1.202 1.202 0 0 0 0 2.404h5.654v4.851h-3.68a1.202 1.202 0 0 0 0 2.404h3.68v4.851H53.4a1.202 1.202 0 0 0 0 2.404h5.654v3.88h-13.49V30.78a1.202 1.202 0 0 0-2.403 0v24.237H36.41V30.306c0-.233-.068-.45-.183-.635l-3.312-6.54-2.939-5.802a1.201 1.201 0 0 0-2.144 0l-6.297 12.434c-.004.006-.006.013-.009.02-.016.033-.031.068-.045.104l-.012.032c-.013.04-.025.081-.034.123l-.004.014a1.23 1.23 0 0 0-.02.14c-.002.012-.002.024-.002.036-.002.024-.004.049-.004.074v11.74a1.202 1.202 0 0 0 2.403 0V31.508h10.2v23.494h-10.2v-8.15a1.202 1.202 0 0 0-2.403 0v8.167H2.403V22.076a1.202 1.202 0 0 0-2.403 0v42.809a3.609 3.609 0 0 0 3.605 3.605h26.317l-.685 5.97h-5.705c-.664 0-1.202.539-1.202 1.202v4.217c0 .664.538 1.202 1.202 1.202h34.937c.663 0 1.201-.538 1.201-1.202v-4.217c0-.663-.538-1.201-1.201-1.201h-5.705l-.685-5.97h26.317A3.609 3.609 0 0 0 82 64.884V11.481a3.61 3.61 0 0 0-3.606-3.604zM42.342 9.292a6.601 6.601 0 0 0-3.328 3.328l-.214.478-.213-.478a6.6 6.6 0 0 0-3.328-3.328l-.478-.214.478-.213a6.6 6.6 0 0 0 3.327-3.328l.214-.478.214.478a6.6 6.6 0 0 0 3.328 3.328l.478.213-.478.214zm-17.78 19.812l2.141-4.228h4.402l2.141 4.228h-8.684zM66.458 55.99a6.6 6.6 0 0 0 3.328-3.328l.214-.478.214.478a6.6 6.6 0 0 0 3.328 3.328l.477.213-.477.214a6.6 6.6 0 0 0-3.328 3.328l-.214.478-.214-.478a6.6 6.6 0 0 0-3.328-3.328l-.477-.214.477-.214zm-9.19 20.874v1.813H24.732v-1.813h32.534zM31.655 74.46l.685-5.971h17.318l.685 5.97H31.656zm47.94-9.576c0 .663-.538 1.202-1.2 1.202H3.604a1.203 1.203 0 0 1-1.202-1.202v-7.463h60.42l2.652 1.189a4.2 4.2 0 0 1 2.118 2.117l1.31 2.924a1.202 1.202 0 0 0 2.193 0l1.311-2.924a4.2 4.2 0 0 1 2.118-2.117l2.652-1.19h2.42v7.464z"></path></g></symbol><symbol viewBox="0 0 29 29" id="i-green-factory"><g opacity=".8" clip-path="url(#green-factory-a)" fill="currentColor"><path d="M3.398 3.971c0-.781.636-1.417 1.416-1.417h4.024a3.097 3.097 0 0 0-.342 1.417v1.38h1.7v-1.38c0-.781.635-1.417 1.415-1.417h11.187V.855H4.814A3.12 3.12 0 0 0 1.7 3.971v1.38h1.7v-1.38z"></path><path d="M16.694 4.254l-1.7 11.997h-3.1V7.029H6.798v9.222h-1.7V7.029H0v21.116h29V4.254H16.694zM16.47 17.95l1.7-11.997h9.13v17.095H13.05v-3.424H5.643v3.424H1.699V17.95H16.47zM8.496 8.728h1.7v7.523h-1.7V8.728zm-6.797 0h1.7v7.523h-1.7V8.728zm0 17.718v-1.7h3.944v1.7H1.699zm5.643 0v-5.123h4.008v5.123H7.342zm5.707 0v-1.7H27.3v1.7H13.049z"></path></g></symbol><symbol viewBox="0 0 18 14" id="i-headhunter"><path d="M2.182.5V14H.072V.5h2.11zm-.37 8.394l-.685-.01a6.2 6.2 0 0 1 .272-1.819c.182-.556.434-1.04.756-1.45a3.364 3.364 0 0 1 2.699-1.3c.468 0 .89.064 1.265.193.381.129.71.337.985.624.275.281.483.65.624 1.107.146.451.22 1.002.22 1.653V14H5.82V7.874c0-.457-.067-.82-.202-1.09a1.172 1.172 0 0 0-.571-.58c-.252-.123-.56-.184-.923-.184-.38 0-.718.076-1.01.228-.288.152-.528.36-.721.624-.194.264-.34.568-.44.914-.094.346-.14.715-.14 1.108zM12.184.5V14h-2.11V.5h2.11zm-.37 8.394l-.685-.01a6.2 6.2 0 0 1 .272-1.819c.182-.556.434-1.04.756-1.45a3.364 3.364 0 0 1 2.698-1.3c.47 0 .891.064 1.266.193.381.129.71.337.985.624.275.281.483.65.623 1.107.147.451.22 1.002.22 1.653V14h-2.127V7.874c0-.457-.067-.82-.202-1.09a1.171 1.171 0 0 0-.571-.58c-.252-.123-.56-.184-.923-.184-.38 0-.718.076-1.01.228a2.11 2.11 0 0 0-.721.624c-.194.264-.34.568-.44.914-.094.346-.14.715-.14 1.108z" fill="currentColor"></path></symbol><symbol viewBox="0 0 29 29" id="i-hotel"><g opacity=".8" fill="currentColor"><path d="M21.616 7.764V0H7.448v7.764H0V29h29V7.764h-7.384zm-1.794 19.442h-1.495v-5.092h1.495v5.092zm-3.289 0H12.53v-5.092h4.003v5.092zm-5.796 0H9.242v-5.092h1.495v5.092zm16.47 0h-5.591V20.32H7.448v6.886H1.794V9.558h7.448V1.794h10.58v7.764h7.384v17.648z"></path><path d="M6.876 11.95h-2.99v1.793h2.99V11.95zM11.435 11.95h-2.99v1.793h2.99V11.95zM15.996 11.95h-2.99v1.793h2.99V11.95zM20.554 11.95h-2.99v1.793h2.99V11.95zM25.113 11.95h-2.99v1.793h2.99V11.95zM6.876 16.135h-2.99v1.794h2.99v-1.794zM11.435 16.135h-2.99v1.794h2.99v-1.794zM15.996 16.135h-2.99v1.794h2.99v-1.794zM20.554 16.135h-2.99v1.794h2.99v-1.794zM25.113 16.135h-2.99v1.794h2.99v-1.794z"></path></g></symbol><symbol viewBox="0 0 29 29" id="i-house"><path d="M22.884 17.023a2.095 2.095 0 0 0-2.093 2.093c0 1.154.939 2.093 2.093 2.093a2.095 2.095 0 0 0 2.093-2.093 2.095 2.095 0 0 0-2.093-2.093z" fill="currentColor"></path><path d="M24.606 13.247V6.3L20.941.061H3.665L0 6.3v17.157h18.524l4.36 5.48 4.799-6.033A6.05 6.05 0 0 0 29 19.116a6.128 6.128 0 0 0-4.394-5.87zM4.692 1.855h15.223l2.227 3.793H2.464l2.228-3.793zM1.794 7.442h21.018V13a6.124 6.124 0 0 0-6.046 6.116c0 .895.19 1.757.556 2.549h-6.12v-9.796H4.293v9.796h-2.5V7.442zm7.613 14.223h-3.32v-8.003h3.32v8.003zm16.87.125l-3.394 4.267-3.392-4.265a4.274 4.274 0 0 1-.93-2.676 4.328 4.328 0 0 1 4.322-4.323 4.328 4.328 0 0 1 4.323 4.323c0 .981-.322 1.906-.929 2.674z" fill="currentColor"></path></symbol><symbol viewBox="0 0 18 18" id="i-instagram"><path d="M12.944 1H4.98A3.981 3.981 0 0 0 1 4.981v7.963a3.981 3.981 0 0 0 3.981 3.981h7.963a3.981 3.981 0 0 0 3.981-3.981V4.98A3.981 3.981 0 0 0 12.944 1z" stroke="currentColor" stroke-width="1.4" stroke-linecap="round" stroke-linejoin="round"></path><path d="M11.934 8.246a3.184 3.184 0 1 1-6.3.935 3.184 3.184 0 0 1 6.3-.935z" stroke="currentColor" stroke-width="1.4" stroke-linecap="round" stroke-linejoin="round"></path></symbol><symbol viewBox="0 0 93 47" id="i-layers"><path d="M54.506 15.919L2.984 31.843l35.968 13.512 51.036-16.407-35.482-13.03z" fill="currentColor"></path><path d="M2.984 31.843l-.291-.965-2.693.83 2.644.965.34-.83zm51.522-15.925l.34-.907-.34-.115-.32.106.32.916zm35.482 13.03l.302.965 2.663-.86-2.625-.964-.34.859zM38.952 45.355l-.34.907.311.116.33-.107-.3-.916zM3.276 32.808l51.522-15.924-.584-1.834L2.694 30.974l.583 1.834zm50.89-15.982l35.482 13.029.68-1.815-35.482-13.029-.68 1.815zm35.52 11.205L38.652 44.438l.603 1.833L90.29 29.864l-.603-1.833zM39.294 44.438L3.325 30.926l-.68 1.814 35.967 13.512.68-1.814z" fill="currentColor"></path><path d="M54.506 1.442L2.984 17.366l35.968 13.512L89.988 14.47 54.506 1.441z" fill="currentColor"></path><path d="M2.984 17.366l-.291-.916L0 17.28l2.644.965.34-.879zM54.506 1.442l.34-.907-.34-.116-.32.106.32.917zm35.482 13.029l.302.917 2.663-.86-2.625-.964-.34.907zM38.952 30.878l-.34.907.311.116.33-.106-.3-.917zM3.276 18.331L54.798 2.407 54.214.573 2.694 16.498l.583 1.833zM54.166 2.35l35.482 13.03.68-1.815L54.846.534l-.68 1.815zm35.52 11.205L38.652 29.961l.603 1.834L90.29 15.388l-.603-1.834zM39.294 29.961L3.325 16.45l-.68 1.814 35.967 13.512.68-1.815z" fill="currentColor"></path></symbol><symbol viewBox="0 0 56 56" id="i-location"><g clip-path="url(#location-a)" fill="currentColor"><path d="M27.998 26.824c5.062 0 9.18-4.117 9.18-9.179 0-5.06-4.118-9.178-9.18-9.178-5.062 0-9.18 4.117-9.18 9.178 0 5.062 4.118 9.18 9.18 9.18zm0-15.076a5.905 5.905 0 0 1 5.9 5.897 5.905 5.905 0 0 1-5.9 5.899 5.905 5.905 0 0 1-5.898-5.899 5.905 5.905 0 0 1 5.898-5.897z"></path><path d="M18.004 34.14c2.486 3.366 1.487 2.056 8.65 12.282a1.641 1.641 0 0 0 2.69.002c7.195-10.275 6.205-8.973 8.651-12.285 2.478-3.355 5.04-6.824 6.444-10.889 2.033-5.884 1.154-11.706-2.473-16.394C38.643 2.563 33.422 0 27.999 0c-5.422 0-10.643 2.563-13.966 6.856-3.627 4.688-4.506 10.51-2.473 16.395 1.403 4.065 3.966 7.534 6.444 10.888zM16.628 8.863c2.706-3.496 6.957-5.583 11.371-5.583 4.415 0 8.666 2.087 11.372 5.583 2.927 3.783 3.626 8.512 1.967 13.316-1.24 3.59-3.651 6.854-5.983 10.01-1.815 2.458-1.271 1.706-7.356 10.427-6.077-8.712-5.541-7.97-7.356-10.427-2.331-3.156-4.742-6.42-5.982-10.01-1.659-4.804-.96-9.533 1.967-13.316z"></path><path d="M19.35 41.253a1.64 1.64 0 0 0-2.263-.51l-4.665 2.945a1.641 1.641 0 0 0 0 2.774l14.7 9.285a1.64 1.64 0 0 0 1.752 0l14.7-9.285a1.641 1.641 0 0 0 0-2.774l-4.665-2.946a1.64 1.64 0 0 0-1.752 2.774l2.469 1.56-11.628 7.343-11.628-7.344 2.469-1.56a1.64 1.64 0 0 0 .51-2.262z"></path></g></symbol><symbol viewBox="0 0 24 24" id="i-location2"><path d="M11.33 18.93l.669.602.669-.602c.259-.232 6.326-5.753 6.326-10.935a6.996 6.996 0 1 0-13.99 0c0 5.182 6.067 10.703 6.326 10.935zM11.999 3a5 5 0 0 1 4.995 4.995c0 3.146-3.16 6.97-4.995 8.81-1.834-1.838-4.995-5.663-4.995-8.81A5.001 5.001 0 0 1 11.999 3zm1.45 5a1.45 1.45 0 1 0-2.899 0 1.45 1.45 0 0 0 2.899 0z" fill="currentColor"></path></symbol><symbol viewBox="0 0 76 15" id="i-long-arrow"><path d="M0 7.5h74.5m0 0L68 1m6.5 6.5L68 14" stroke="currentColor" stroke-width="2"></path></symbol><symbol viewBox="0 0 73 73" id="i-machine-press"><path d="M12.168 56.575a3.65 3.65 0 1 0 0-7.3 3.65 3.65 0 1 0 0 7.3zm0-4.867a1.216 1.216 0 1 1 .001 2.432 1.216 1.216 0 0 1-.001-2.432zM21.9 56.575a3.65 3.65 0 1 0 .001-7.299 3.65 3.65 0 0 0-.001 7.299zm0-4.867a1.216 1.216 0 1 1 .001 2.432 1.216 1.216 0 0 1-.001-2.432zM31.634 56.575a3.65 3.65 0 1 0 0-7.3 3.65 3.65 0 1 0 0 7.3zm0-4.867a1.216 1.216 0 1 1 .002 2.432 1.216 1.216 0 0 1-.002-2.432zM41.367 56.575a3.65 3.65 0 1 0 .001-7.299 3.65 3.65 0 0 0-.001 7.299zm0-4.867a1.216 1.216 0 1 1 .001 2.432 1.216 1.216 0 0 1-.001-2.432zM51.1 56.575a3.65 3.65 0 1 0 0-7.299 3.65 3.65 0 0 0 0 7.299zm0-4.867a1.216 1.216 0 1 1 0 2.432 1.216 1.216 0 0 1 0-2.432zM60.832 56.575a3.65 3.65 0 1 0 0-7.3 3.65 3.65 0 1 0 0 7.3zm0-4.867a1.216 1.216 0 1 1 0 2.432 1.216 1.216 0 0 1 0-2.432z" fill="currentColor"></path><path d="M71.783 68.741H69.35v-7.3h.769a2.881 2.881 0 0 0 2.88-2.88V47.288a2.88 2.88 0 0 0-2.432-2.843v-4.32a3.018 3.018 0 0 0-2.434-2.96V3.042c0-.672-.544-1.217-1.216-1.217H6.084c-.672 0-1.217.545-1.217 1.217v34.124a3.018 3.018 0 0 0-2.433 2.96v4.32A2.88 2.88 0 0 0 0 47.29V58.56c0 1.591 1.29 2.881 2.882 2.881h.768v7.3H1.217a1.217 1.217 0 1 0 0 2.434h70.566a1.216 1.216 0 1 0 0-2.434zM7.3 4.258h58.4v32.85h-4.867V10.342c0-.672-.544-1.217-1.216-1.217H13.384c-.672 0-1.217.545-1.217 1.217v26.766H7.3V4.258zm38.934 32.85v-4.866c0-.672-.545-1.217-1.217-1.217H27.984c-.672 0-1.217.545-1.217 1.217v4.866H14.601v-25.55h12.166v4.867h-2.433v-1.217a1.217 1.217 0 1 0-2.434 0v4.867a1.217 1.217 0 1 0 2.434 0v-1.217h2.433v3.65c0 .672.545 1.217 1.217 1.217h3.65v3.65c0 .672.544 1.216 1.216 1.216h7.3c.672 0 1.217-.544 1.217-1.216v-3.65h3.65c.672 0 1.216-.545 1.216-1.217v-3.65h2.434v1.217a1.217 1.217 0 1 0 2.433 0v-4.867a1.217 1.217 0 1 0-2.433 0v1.217h-2.434v-4.867H58.4v25.55H46.234zm-2.434 0H29.2v-3.65h14.6v3.65zm0-15.816H29.2v-9.734h14.6v9.734zm-9.733 2.433h4.867v2.433h-4.867v-2.433zm-29.2 16.4c0-.322.262-.583.584-.583H67.55c.322 0 .584.261.584.584v4.282H4.867v-4.282zM2.433 58.56V47.29c0-.247.202-.448.45-.448h67.236c.247 0 .447.2.447.447V58.56c0 .248-.2.448-.447.448H2.882a.449.449 0 0 1-.449-.448zm57.184 2.881v7.3H13.384v-7.3h46.233zm-53.533 7.3v-7.3h4.866v7.3H6.084zm55.966 0v-7.3h4.867v7.3H62.05z" fill="currentColor"></path></symbol><symbol viewBox="0 0 67 67" id="i-materials"><path fill-rule="evenodd" clip-rule="evenodd" d="M52.831 44.666H63.65a3.354 3.354 0 0 1 3.35 3.35V63.65A3.354 3.354 0 0 1 63.65 67H3.35A3.354 3.354 0 0 1 0 63.65V3.35A3.354 3.354 0 0 1 3.35 0h15.633a3.354 3.354 0 0 1 3.35 3.35v10.82l5.41-9.369a3.348 3.348 0 0 1 4.57-1.236l13.537 7.819a3.349 3.349 0 0 1 1.221 4.588l-5.405 9.362 9.366-5.409a3.314 3.314 0 0 1 2.544-.34c.86.229 1.593.79 2.038 1.56l7.82 13.539a3.343 3.343 0 0 1-1.238 4.575l-9.365 5.407zm-50.598.207a3.32 3.32 0 0 1 1.117-.206h1.376L11.173 33.5h-8.94v11.373zm30.862-.206h15.27l.146-.084-8.93-15.466-11.602 6.7 5.116 8.85zm-8.518-9.464l13.22-7.635.086-.15-15.465-8.928-6.697 11.6 8.855 5.113zm-11.339-5.28L20.1 18.039v-.171H2.233v13.4h10.23l.756-1.31.007-.019a.034.034 0 0 1 .006-.008.035.035 0 0 0 .006-.006zm9.105 6.57l-7.738-4.47-7.3 12.643h.882l14.156-8.174zm2.792.966l-.015.009-12.466 7.198h17.861l-4.47-7.732-.91.526zM33.5 46.9H20.1v17.868h13.4V46.9zm15.633 0h-13.4v17.868h13.4V46.9zM53 21.743a1.102 1.102 0 0 0-.846.115L41.516 28l8.929 15.466 10.637-6.142a1.112 1.112 0 0 0 .415-1.525l-7.814-13.532a1.133 1.133 0 0 0-.684-.524zM30.353 5.392a1.112 1.112 0 0 0-.675.523l-6.143 10.64 15.466 8.929L45.14 14.85c.152-.256.195-.562.118-.85a1.133 1.133 0 0 0-.529-.686L31.2 5.5a1.113 1.113 0 0 0-.846-.109zm-11.37-3.159H3.35c-.616.001-1.116.5-1.117 1.117v12.283H20.1V3.35a1.119 1.119 0 0 0-1.117-1.117zM2.233 48.017V63.65c.001.616.5 1.116 1.117 1.117h14.517V46.9H3.35c-.616 0-1.116.5-1.117 1.117zm61.417 16.75a1.119 1.119 0 0 0 1.117-1.117V48.017A1.119 1.119 0 0 0 63.65 46.9H51.367v17.867H63.65zM6.7 55.834a4.467 4.467 0 1 1 8.933 0 4.467 4.467 0 0 1-8.933 0zm2.233 0a2.233 2.233 0 1 0 4.466 0 2.233 2.233 0 0 0-4.466 0z" fill="currentColor"></path></symbol><symbol viewBox="0 0 77 77" id="i-offset"><path d="M70.806 30.98c1.138-.741 2.181-1.745 3.087-2.991C75.897 25.234 77 21.596 77 17.746c0-3.85-1.103-7.488-3.107-10.243-2.108-2.899-4.957-4.495-8.022-4.495H11.13c-3.065 0-5.914 1.596-8.022 4.495C1.103 10.258 0 13.896 0 17.746c0 3.85 1.103 7.488 3.107 10.243.906 1.246 1.949 2.25 3.087 2.991-1.138.742-2.181 1.746-3.087 2.992C1.103 36.727 0 40.364 0 44.215c0 3.85 1.103 7.488 3.107 10.242 2.108 2.9 4.957 4.496 8.022 4.496h8.121v13.535c0 .83.673 1.504 1.504 1.504h15.664a1.504 1.504 0 1 0 0-3.008h-14.16v-26.77c0-3.85-1.104-7.487-3.107-10.242a13.046 13.046 0 0 0-1.257-1.488H65.87c2.077 0 4.062 1.157 5.59 3.257 1.632 2.245 2.531 5.254 2.531 8.474v26.77H51.17a1.504 1.504 0 1 0 0 3.007h24.326c.83 0 1.504-.673 1.504-1.504V44.215c0-3.85-1.103-7.488-3.107-10.243-.906-1.246-1.949-2.25-3.087-2.992zM19.25 55.945h-1.356c.443-.449.863-.945 1.257-1.487.034-.047.066-.096.099-.143v1.63zm0-11.73c0 3.22-.899 6.229-2.532 8.473-1.527 2.1-3.512 3.257-5.59 3.257-2.076 0-4.061-1.156-5.589-3.257-1.632-2.244-2.531-5.253-2.531-8.473 0-3.22.899-6.229 2.531-8.474 1.528-2.1 3.513-3.257 5.59-3.257s4.062 1.157 5.59 3.257c1.632 2.245 2.531 5.254 2.531 8.474zM16.718 26.22c-1.527 2.1-3.512 3.257-5.59 3.257-2.076 0-4.061-1.157-5.589-3.257-1.632-2.245-2.531-5.254-2.531-8.474 0-3.22.899-6.229 2.531-8.474 1.528-2.1 3.513-3.256 5.59-3.256s4.062 1.156 5.59 3.256c1.632 2.245 2.531 5.254 2.531 8.474 0 3.22-.899 6.229-2.532 8.474zm49.153 3.257H17.894c.443-.45.863-.946 1.257-1.488 2.003-2.755 3.107-6.393 3.107-10.243 0-3.85-1.104-7.488-3.107-10.243a13.056 13.056 0 0 0-1.257-1.487H65.87c2.077 0 4.062 1.156 5.59 3.256 1.632 2.245 2.531 5.254 2.531 8.474 0 3.22-.899 6.229-2.531 8.474-1.528 2.1-3.513 3.257-5.59 3.257z" fill="currentColor"></path><path d="M44.403 71.425c-.28-.28-.668-.44-1.063-.44-.397 0-.784.16-1.063.44a1.51 1.51 0 0 0-.441 1.063 1.509 1.509 0 0 0 1.504 1.504c.395 0 .783-.16 1.063-.44.28-.28.44-.668.44-1.064 0-.395-.16-.783-.44-1.063zM12.192 43.152c-.28-.28-.668-.441-1.063-.441-.396 0-.784.16-1.063.44-.28.28-.441.668-.441 1.064 0 .395.16.783.44 1.063.28.28.668.44 1.064.44.395 0 .783-.16 1.063-.44.28-.28.44-.668.44-1.063 0-.396-.16-.784-.44-1.063zM12.192 16.683c-.28-.28-.668-.44-1.063-.44-.396 0-.784.16-1.063.44-.28.28-.441.668-.441 1.063 0 .396.16.784.44 1.063.28.28.668.441 1.064.441.395 0 .783-.16 1.063-.44.28-.28.44-.668.44-1.064 0-.395-.16-.783-.44-1.063zM57.075 9.324H45.27a1.504 1.504 0 1 0 0 3.008h11.806a1.504 1.504 0 1 0 0-3.008zM39.583 9.765c-.28-.28-.668-.44-1.063-.44-.396 0-.784.16-1.064.44-.281.28-.44.668-.44 1.063a1.509 1.509 0 0 0 1.504 1.504c.395 0 .783-.16 1.063-.44.28-.28.44-.668.44-1.064 0-.395-.16-.783-.44-1.063z" fill="currentColor"></path></symbol><symbol viewBox="0 0 76 77" id="i-package"><g clip-path="url(#package-a)" fill="currentColor"><path d="M71.593 18.687L38.676.188a1.463 1.463 0 0 0-1.437 0L4.323 18.687a1.507 1.507 0 0 0-.764 1.315v36.996c0 .547.292 1.05.764 1.315l32.916 18.499a1.465 1.465 0 0 0 1.437 0l32.917-18.499c.471-.265.764-.768.764-1.315V44.807c0-.83-.664-1.504-1.482-1.504-.82 0-1.483.673-1.483 1.504v11.305L39.44 72.945v-33.56l29.952-16.831v9.322c0 .83.664 1.504 1.483 1.504.819 0 1.482-.674 1.482-1.504V20.002c0-.547-.293-1.05-.764-1.315zM37.958 3.222l9.005 5.061-9.282 5.217a1.515 1.515 0 0 0-.578 2.043c.27.496.776.776 1.298.776.243 0 .49-.061.717-.189l10.904-6.128 4.618 2.595-29.858 16.78-4.618-2.595 7.991-4.49a1.515 1.515 0 0 0 .578-2.045 1.471 1.471 0 0 0-2.015-.586l-9.613 5.402L8.1 20.002l29.858-16.78zm-14.605 28.79v6.093l-4.725-2.633v-6.116l4.724 2.655zm13.122 40.933L6.523 56.112V22.554l9.14 5.136v8.672c0 .548.295 1.053.769 1.317l7.689 4.286a1.466 1.466 0 0 0 1.469-.024c.45-.271.727-.763.727-1.294v-6.97l10.158 5.709v33.559zm1.483-36.164L27.84 31.096l29.858-16.78 10.117 5.686-29.858 16.78z"></path><path d="M71.92 37.428a1.484 1.484 0 0 0-1.047-.44c-.39 0-.772.161-1.048.44-.276.28-.434.668-.434 1.064 0 .395.158.783.434 1.062.276.28.658.44 1.048.44s.772-.16 1.048-.44.434-.667.434-1.063c0-.395-.159-.783-.434-1.063zM33.97 16.83a1.483 1.483 0 0 0-1.049-.44c-.391 0-.774.16-1.05.44-.275.28-.433.668-.433 1.063 0 .395.158.784.434 1.063.276.28.658.44 1.05.44.39 0 .772-.16 1.047-.44.276-.28.434-.668.434-1.063 0-.395-.158-.783-.434-1.063zM16.211 53.992l-4.327-2.412a1.472 1.472 0 0 0-2.013.594 1.515 1.515 0 0 0 .585 2.042l4.328 2.411c.226.127.47.187.712.187a1.48 1.48 0 0 0 1.3-.78 1.515 1.515 0 0 0-.585-2.042zM60.296 43.757l-.006-.009-4.163-5.487a1.473 1.473 0 0 0-1.266-.584 1.48 1.48 0 0 0-1.186.737l-4.143 7.12-.025.045a9.613 9.613 0 0 0-1.405 4.97c0 2.255.858 4.278 2.355 5.551a5.607 5.607 0 0 0 3.672 1.354c.356 0 .718-.032 1.082-.098 3.696-.664 6.592-4.562 6.592-8.874 0-1.801-.535-3.478-1.507-4.725zm-5.602 10.638c-.88.158-1.685-.05-2.332-.599-.824-.7-1.296-1.884-1.296-3.247 0-1.18.356-2.406 1.002-3.453.022-.035.042-.07.06-.107l2.986-5.132 2.806 3.698.038.05c.567.72.88 1.741.88 2.877 0 2.802-1.898 5.51-4.145 5.913z"></path></g></symbol><symbol viewBox="0 0 79 79" id="i-pdf"><path d="M69.395 16.6l-1.05-1.05L54.595 1.8 53.545.75a2.576 2.576 0 0 0-1.81-.75h-39.53C10.59 0 8.852 1.248 8.852 3.985V76.275c0 1.14 1.147 2.252 2.504 2.602.068.018.133.044.204.058.212.042.429.065.647.065h54.583c.218 0 .435-.023.647-.065.071-.014.137-.04.205-.058 1.356-.35 2.503-1.461 2.503-2.601V19.039c0-1.045-.125-1.816-.749-2.44zm-4.107-.255H53.8V4.855l11.49 11.49zm-53.082 59.93c-.097 0-.184-.035-.27-.066a.624.624 0 0 1-.36-.564v-19.8H67.42v19.8c0 .25-.148.462-.36.564-.087.031-.174.067-.27.067H12.205zm-.63-23.154V3.985c0-.295.044-1.26.63-1.26h38.948a2.1 2.1 0 0 0-.079.532v15.812h15.813c.183 0 .36-.034.53-.079l.002.049v34.082H11.575z" fill="currentColor"></path><path d="M30.02 60.944a4.683 4.683 0 0 0-1.536-.837 5.54 5.54 0 0 0-1.732-.28h-3.947v13.725h2.235v-4.954h1.658c.72 0 1.378-.105 1.974-.316a4.45 4.45 0 0 0 1.526-.894c.423-.384.751-.859.988-1.424a4.867 4.867 0 0 0 .354-1.89c0-.659-.14-1.251-.42-1.78a4.38 4.38 0 0 0-1.1-1.35zm-.847 4.535c-.138.379-.316.673-.54.884a2.04 2.04 0 0 1-.735.456c-.267.093-.538.14-.81.14h-2.049v-5.437h1.675c.571 0 1.03.09 1.379.27.347.18.617.403.81.67.192.267.319.546.382.838.06.291.092.549.092.772 0 .56-.068 1.028-.204 1.407zM43.523 61.838c-.578-.608-1.304-1.097-2.18-1.462-.875-.365-1.89-.549-3.044-.549h-4.133v13.724h5.195c.172 0 .44-.021.8-.065a5.5 5.5 0 0 0 1.192-.298 6.245 6.245 0 0 0 1.35-.7c.466-.31.884-.735 1.257-1.275.373-.541.68-1.211.922-2.012.243-.801.364-1.767.364-2.896 0-.82-.143-1.618-.428-2.393a6.04 6.04 0 0 0-1.295-2.074zm-1.63 8.622c-.67.968-1.762 1.451-3.276 1.451H36.4v-10.39h1.303c1.068 0 1.937.14 2.607.419.67.279 1.202.645 1.592 1.099.391.453.654.959.792 1.517.136.559.204 1.124.204 1.695 0 1.837-.335 3.241-1.005 4.209zM48.484 73.552h2.272v-6.183h5.736v-1.526h-5.736v-4.32h6.312v-1.695h-8.584v13.724zM52.34 31.274c-1.253 0-2.789.164-4.575.488-2.492-2.645-5.094-6.508-6.93-10.3 1.821-7.667.91-8.752.508-9.265-.428-.544-1.03-1.428-1.717-1.428-.288 0-1.072.13-1.384.234-.785.261-1.207.866-1.545 1.655-.963 2.251.358 6.09 1.718 9.048-1.162 4.622-3.111 10.153-5.16 14.642-5.162 2.365-7.904 4.687-8.152 6.903-.09.806.101 1.99 1.519 3.054.388.29.843.444 1.317.444 1.192 0 2.396-.913 3.79-2.87 1.015-1.427 2.107-3.374 3.245-5.79 3.648-1.595 8.16-3.036 12.025-3.844 2.152 2.066 4.079 3.113 5.735 3.113 1.22 0 2.267-.562 3.024-1.623.789-1.104.968-2.093.531-2.942-.524-1.02-1.817-1.518-3.95-1.518zM27.968 44.45c-.637-.49-.6-.819-.587-.943.084-.757 1.27-2.101 4.181-3.737-2.206 4.075-3.391 4.616-3.594 4.68zm11.169-31.222c.059-.019 1.423 1.5.13 4.38-1.942-1.986-.264-4.335-.13-4.38zm-2.815 21.829a97.118 97.118 0 0 0 3.642-10.303c1.53 2.749 3.367 5.416 5.206 7.552a67.845 67.845 0 0 0-8.848 2.751zm17.572-.653c-.42.588-1.33.601-1.649.601-.725 0-.997-.432-2.107-1.286a19.615 19.615 0 0 1 2.467-.147c1.211 0 1.433.179 1.6.269-.03.096-.108.279-.311.563z" fill="currentColor"></path></symbol><symbol viewBox="0 0 12 12" id="i-phone"><path d="M11.037 7.877a6.813 6.813 0 0 1-2.14-.341c-.335-.114-.746-.01-.95.2l-1.35 1.019C5.032 7.92 4.068 6.956 3.244 5.403l.99-1.314a.97.97 0 0 0 .238-.983A6.823 6.823 0 0 1 4.13.963.964.964 0 0 0 3.167 0H.963A.964.964 0 0 0 0 .963C0 7.049 4.951 12 11.037 12a.964.964 0 0 0 .963-.963V8.84a.964.964 0 0 0-.963-.962z" fill="currentColor"></path></symbol><symbol viewBox="0 0 23 25" id="i-phone2"><g clip-path="url(#phone2-a)"><path d="M16.536 12.872l-2.25 2.25a12.515 12.515 0 0 1-5.409-5.409l2.25-2.25-2.94-5.63-3.206 1.026a4.452 4.452 0 0 0-3.049 5.136 18.407 18.407 0 0 0 4.984 9.088 18.407 18.407 0 0 0 9.089 4.984 4.452 4.452 0 0 0 5.136-3.049l1.025-3.206-5.63-2.94zm2.7 5.537a2.456 2.456 0 0 1-2.801 1.705A16.508 16.508 0 0 1 3.885 7.565 2.456 2.456 0 0 1 5.59 4.764l1.603-.513 1.482 2.836L7.463 8.3l-1.03 1.03.664 1.296a14.518 14.518 0 0 0 6.277 6.277l1.297.664 1.03-1.03 1.211-1.211 2.836 1.481-.512 1.603zM16 10h2a4.004 4.004 0 0 0-4-4v2a2.002 2.002 0 0 1 2 2zm4 0h2a8.01 8.01 0 0 0-8-8v2a6.007 6.007 0 0 1 6 6z" fill="currentColor"></path></g></symbol><symbol viewBox="0 0 73 73" id="i-prices"><g clip-path="url(#prices-a)" fill="currentColor"><path d="M31.11 61.253a1.425 1.425 0 1 0-.557 2.794 1.425 1.425 0 0 0 .558-2.794z"></path><path d="M71.827 40.663c-.436-3.061-3.073-5.423-6.253-5.423h-.505v-8.886a5.054 5.054 0 0 0-5.05-5.05h-.952l2.615-3.748a5.058 5.058 0 0 0-1.377-7.13C44.335-.041 45.425.622 44.755.356c-2.155-.858-4.715-.135-6.066 1.852l-3.992 5.873L29.67 4.79c-1.999-1.31-4.717-.768-6.06 1.208L13.203 21.305H7.157A6.023 6.023 0 0 0 1.14 27.32l.003.13-.003.065v39.346A6.144 6.144 0 0 0 7.278 73h51.653a6.144 6.144 0 0 0 6.138-6.138v-3.414h.287a6.542 6.542 0 0 0 6.535-6.535c0-17.288.032-15.942-.064-16.25zm-6.253-2.571a3.47 3.47 0 0 1 3.466 3.465c-.009.071.082 1.109-.51 2.084-1.191 1.957-3.363 1.673-3.46 1.696v-7.245h.504zM37.09 9.633c4.3 2.526 9.844 1.462 12.869-2.578l3.098 2.03c-2.366 4.086-1.35 9.37 2.526 12.232l-2.379 3.408H26.828c.276-.407 8.903-13.094 10.26-15.092zm3.958-5.821a2.22 2.22 0 0 1 3.039-.606l3.481 2.282a6.995 6.995 0 0 1-8.871 1.781l2.35-3.457zm17.695 9a2.208 2.208 0 0 1 .602 3.112l-2.13 3.052c-2.596-1.968-3.303-5.522-1.768-8.326l3.296 2.161zM25.97 7.6a1.562 1.562 0 0 1 2.139-.426l4.984 3.266-9.712 14.285h-9.054L25.97 7.6zM7.157 24.157h4.107c-.646 1.03-1.02 1.284-1.055 1.915a1.427 1.427 0 0 0 1.423 1.505h42.315c.467 0 .903-.228 1.17-.61l1.96-2.81h2.943a2.2 2.2 0 0 1 2.197 2.197v4.131H7.157c-4.266 0-4.103-6.328 0-6.328zm55.06 42.705a3.29 3.29 0 0 1-3.285 3.286H7.277a3.289 3.289 0 0 1-3.285-3.286v-2.785h21.136a1.426 1.426 0 0 0 0-2.852H3.993V32.444a6.04 6.04 0 0 0 1.947.769c1.484.306.806.023 56.277.123v12.001h-5.219c-4.993 0-9.055 4.062-9.055 9.055 0 4.994 4.062 9.056 9.055 9.056h5.219v3.414zm6.823-9.949a3.687 3.687 0 0 1-3.684 3.683h-8.358a6.21 6.21 0 0 1-6.203-6.204 6.21 6.21 0 0 1 6.203-6.203h8.522c1.289 0 2.51-.391 3.52-1.063v9.787z"></path><path d="M57.5 49.377a5.03 5.03 0 0 0-5.023 5.024 5.03 5.03 0 0 0 5.023 5.023 5.03 5.03 0 0 0 5.024-5.023 5.03 5.03 0 0 0-5.024-5.024zm0 7.196A2.174 2.174 0 0 1 55.33 54.4c0-1.198.974-2.173 2.171-2.173 1.198 0 2.172.975 2.172 2.173a2.175 2.175 0 0 1-2.172 2.172z"></path></g></symbol><symbol viewBox="0 0 76 76" id="i-production"><path d="M15.506 58.7a5.195 5.195 0 0 0-5.19 5.19 5.195 5.195 0 0 0 5.19 5.19 5.195 5.195 0 0 0 5.19-5.19 5.195 5.195 0 0 0-5.19-5.19zm0 8.205a3.019 3.019 0 0 1-3.015-3.015 3.019 3.019 0 0 1 3.015-3.015 3.018 3.018 0 0 1 3.015 3.015 3.018 3.018 0 0 1-3.015 3.015zM35.785 63.89a5.195 5.195 0 0 0-5.19-5.189 5.195 5.195 0 0 0-5.189 5.19 5.195 5.195 0 0 0 5.19 5.189 5.195 5.195 0 0 0 5.19-5.19zm-8.204 0a3.019 3.019 0 0 1 3.015-3.014 3.018 3.018 0 0 1 3.015 3.015 3.019 3.019 0 0 1-3.015 3.015 3.018 3.018 0 0 1-3.015-3.015zM50.875 63.89a5.195 5.195 0 0 0-5.19-5.189 5.195 5.195 0 0 0-5.189 5.19 5.195 5.195 0 0 0 5.19 5.189 5.195 5.195 0 0 0 5.189-5.19zm-8.205 0a3.019 3.019 0 0 1 3.015-3.014A3.019 3.019 0 0 1 48.7 63.89a3.019 3.019 0 0 1-3.015 3.015 3.019 3.019 0 0 1-3.015-3.015zM65.969 63.89a5.195 5.195 0 0 0-5.19-5.189 5.195 5.195 0 0 0-5.19 5.19 5.195 5.195 0 0 0 5.19 5.189 5.195 5.195 0 0 0 5.19-5.19zm-8.205 0a3.019 3.019 0 0 1 3.015-3.014 3.018 3.018 0 0 1 3.015 3.015 3.018 3.018 0 0 1-3.015 3.015 3.018 3.018 0 0 1-3.015-3.015z" fill="currentColor" stroke="currentColor" stroke-width=".3" stroke-linecap="round"></path><path d="M63.928 52.537H53.616v-4.31a1.087 1.087 0 1 0-2.175 0v4.31H21.515V22.66c0-.027.022-.05.049-.05h9.994v7.438c0 .619.316 1.18.844 1.504a1.757 1.757 0 0 0 1.723.064l2.353-1.206 2.353 1.206a1.75 1.75 0 0 0 1.723-.064 1.75 1.75 0 0 0 .844-1.504V22.61h9.995c.026 0 .048.021.048.049v20.538a1.087 1.087 0 1 0 2.175 0v-2.772h2.015a2.38 2.38 0 0 0 2.377-2.376V35.36c0-.083.05-.16.123-.185a15.262 15.262 0 0 0 1.483-.614.194.194 0 0 1 .22.044l1.9 1.9a2.38 2.38 0 0 0 3.36 0l3.709-3.707a2.38 2.38 0 0 0 0-3.361l-1.901-1.9a.194.194 0 0 1-.044-.22c.23-.481.436-.98.614-1.483a.196.196 0 0 1 .186-.123h2.688a2.38 2.38 0 0 0 2.376-2.377v-5.244a2.38 2.38 0 0 0-2.376-2.376h-2.689a.196.196 0 0 1-.185-.123 15.325 15.325 0 0 0-.614-1.483.194.194 0 0 1 .044-.22l1.9-1.9a2.38 2.38 0 0 0 0-3.361L65.096 4.92a2.38 2.38 0 0 0-3.361 0l-1.901 1.9a.194.194 0 0 1-.22.044c-.48-.229-.979-.435-1.483-.613a.196.196 0 0 1-.123-.186V3.377A2.38 2.38 0 0 0 55.631 1h-5.244a2.38 2.38 0 0 0-2.376 2.377v2.688c0 .084-.05.16-.124.186-.503.178-1.002.384-1.482.613a.195.195 0 0 1-.22-.043l-1.9-1.901a2.38 2.38 0 0 0-3.361 0l-3.708 3.708a2.38 2.38 0 0 0 0 3.36l1.9 1.902c.06.06.078.148.044.218-.229.481-.435.98-.613 1.484a.196.196 0 0 1-.186.123h-2.688a2.38 2.38 0 0 0-2.377 2.376v2.345H21.564a2.226 2.226 0 0 0-2.224 2.223v29.878h-6.986C6.094 52.537 1 57.63 1 63.891c0 6.26 5.093 11.353 11.354 11.353h4.968a1.087 1.087 0 0 0 0-2.174h-4.968c-5.062 0-9.18-4.118-9.18-9.18 0-5.06 4.118-9.178 9.18-9.178h51.574c5.062 0 9.18 4.117 9.18 9.179 0 5.061-4.118 9.179-9.18 9.179h-41.56a1.087 1.087 0 1 0 0 2.174h41.56c6.26 0 11.354-5.093 11.354-11.353s-5.093-11.354-11.354-11.354zm-12.535-32.1h-6.435c.147-4.316 3.7-7.782 8.051-7.782 4.444 0 8.059 3.615 8.059 8.058 0 4.24-3.291 7.722-7.452 8.034V22.66a2.226 2.226 0 0 0-2.224-2.224zM35.47 18.09c0-.111.091-.202.203-.202h2.688a2.371 2.371 0 0 0 2.236-1.572c.152-.432.33-.86.526-1.272.43-.9.241-1.983-.469-2.693l-1.9-1.9a.202.202 0 0 1 0-.286l3.707-3.708a.202.202 0 0 1 .286 0l1.9 1.9c.71.71 1.793.899 2.694.47.412-.197.84-.374 1.271-.527a2.37 2.37 0 0 0 1.573-2.236V3.377c0-.112.09-.203.202-.203h5.244c.111 0 .202.091.202.203v2.688A2.37 2.37 0 0 0 57.406 8.3c.432.153.86.33 1.271.527.9.43 1.983.241 2.693-.469l1.901-1.9a.202.202 0 0 1 .286 0l3.708 3.707a.202.202 0 0 1 0 .286l-1.901 1.9a2.372 2.372 0 0 0-.469 2.694c.197.412.374.84.526 1.271a2.371 2.371 0 0 0 2.236 1.573h2.689c.111 0 .202.09.202.202v5.244c0 .111-.091.202-.202.202h-2.689a2.371 2.371 0 0 0-2.236 1.573c-.152.431-.329.859-.526 1.271-.43.9-.241 1.983.469 2.693l1.9 1.9a.202.202 0 0 1 0 .287l-3.707 3.707a.202.202 0 0 1-.286 0l-1.9-1.9a2.372 2.372 0 0 0-2.694-.469c-.412.197-.84.374-1.271.526a2.371 2.371 0 0 0-1.573 2.236v2.688c0 .112-.09.202-.202.202h-2.016v-7.325c5.361-.315 9.627-4.774 9.627-10.213 0-5.643-4.59-10.233-10.233-10.233-5.55 0-10.078 4.441-10.226 9.956H35.47V18.09zm-1.737 4.52h5.49v6.763l-1.941-.995a1.766 1.766 0 0 0-1.608 0l-1.941.995V22.61z" fill="currentColor" stroke="currentColor" stroke-width=".3" stroke-linecap="round"></path><path d="M31.07 41.198a1.74 1.74 0 0 0-1.738 1.737v4.641c0 .958.78 1.738 1.738 1.738h10.814a1.74 1.74 0 0 0 1.738-1.738v-4.64a1.74 1.74 0 0 0-1.738-1.738H31.07zm10.378 5.941h-9.942v-3.767h9.942v3.767z" fill="currentColor" stroke="currentColor" stroke-width=".3" stroke-linecap="round"></path></symbol><symbol viewBox="0 0 73 73" id="i-qr-code"><path d="M10.51 11.756v18.56c0 .741.6 1.342 1.342 1.342h18.56c.741 0 1.342-.6 1.342-1.342v-3.52a1.342 1.342 0 1 0-2.684 0v2.178H13.194V13.098H29.07v3.23a1.342 1.342 0 1 0 2.684 0v-4.572c0-.741-.601-1.342-1.342-1.342h-18.56c-.741 0-1.342.6-1.342 1.342z" fill="currentColor"></path><path d="M18.351 16.91c-.741 0-1.341.6-1.341 1.342v5.568c0 .74.6 1.342 1.341 1.342h5.569c.74 0 1.342-.601 1.342-1.342v-5.568c0-.741-.602-1.342-1.343-1.342h-5.568zm4.227 5.568h-2.884v-2.884h2.884v2.884zM30.412 41.242h-18.56c-.741 0-1.342.6-1.342 1.341v18.56c0 .742.6 1.343 1.342 1.343h18.56c.741 0 1.342-.601 1.342-1.342v-18.56c0-.742-.601-1.342-1.342-1.342zm-1.342 18.56H13.194V43.925H29.07v15.877zM42.774 31.658h18.56c.74 0 1.342-.6 1.342-1.342v-18.56c0-.741-.601-1.342-1.342-1.342h-18.56c-.741 0-1.342.6-1.342 1.342v18.56c0 .741.6 1.342 1.342 1.342zm1.341-18.56h15.877v15.876H44.115V13.098zM62.676 61.144v-18.56c0-.742-.601-1.342-1.342-1.342h-18.56c-.741 0-1.342.6-1.342 1.341v18.56c0 .742.6 1.343 1.342 1.343h18.56c.74 0 1.342-.601 1.342-1.342zm-2.684-1.342H44.115V43.925h15.877v15.877z" fill="currentColor"></path><path d="M61.335 37.873a1.342 1.342 0 0 0 0-2.684H37.807V11.607a1.342 1.342 0 0 0-2.685 0V35.19H17.31a1.342 1.342 0 0 0 0 2.684h17.812v23.27a1.342 1.342 0 0 0 2.685 0v-23.27h23.528z" fill="currentColor"></path><path d="M18.351 56.09h5.569c.74 0 1.342-.601 1.342-1.342V49.18c0-.742-.602-1.342-1.343-1.342h-5.568c-.741 0-1.341.6-1.341 1.342v5.568c0 .74.6 1.342 1.341 1.342zm1.343-5.568h2.884v2.884h-2.884v-2.884zM54.838 16.91H49.27c-.741 0-1.342.6-1.342 1.342v5.568c0 .74.6 1.342 1.342 1.342h5.568c.741 0 1.342-.601 1.342-1.342v-5.568c0-.741-.6-1.342-1.342-1.342zm-1.342 5.568h-2.884v-2.884h2.884v2.884zM49.27 56.09h5.568c.741 0 1.342-.601 1.342-1.342V49.18c0-.742-.6-1.342-1.342-1.342H49.27c-.741 0-1.342.6-1.342 1.342v5.568c0 .74.6 1.342 1.342 1.342zm1.342-5.568h2.884v2.884h-2.884v-2.884zM11.581 35.195l-.072.016a1.343 1.343 0 0 0 .616 2.613l.072-.017a1.341 1.341 0 1 0-.616-2.612zM30.143 20.224l-.073.017a1.342 1.342 0 0 0 .614 2.613l.072-.017a1.342 1.342 0 0 0-.613-2.613zM3.588 13.309c.742 0 1.342-.6 1.342-1.342V5.001h6.713a1.342 1.342 0 1 0 0-2.684H3.588c-.74 0-1.342.601-1.342 1.342v8.308c0 .741.601 1.342 1.342 1.342zM69.341 2.317h-8.055a1.342 1.342 0 1 0 0 2.684h6.713v6.966a1.341 1.341 0 1 0 2.684 0V3.66c0-.741-.601-1.342-1.342-1.342zM11.643 68.013H4.93v-6.966a1.342 1.342 0 0 0-2.684 0v8.308c0 .741.601 1.342 1.342 1.342h8.055a1.342 1.342 0 1 0 0-2.684zM69.341 59.705c-.742 0-1.342.601-1.342 1.342v6.966h-6.713a1.342 1.342 0 1 0 0 2.684h8.055c.74 0 1.342-.601 1.342-1.342v-8.308c0-.74-.601-1.342-1.342-1.342z" fill="currentColor"></path></symbol><symbol viewBox="0 0 46 46" id="i-saving"><g clip-path="url(#saving-a)"><path d="M41.757 22.26h-1.65a12.952 12.952 0 0 0-1.425-2.437l3.14-1.385c.488-.216.803-.7.803-1.233 0-3.034-2.46-5.502-5.483-5.502h-3.255c-2.056 0-3.933 1.179-4.864 2.965h-2.325a12 12 0 0 0 .3-2.671C26.997 5.382 21.62 0 15.012 0S3.03 5.382 3.03 11.997a11.96 11.96 0 0 0 3.353 8.313c-.6.89-1.092 1.86-1.457 2.889a2.978 2.978 0 0 1-2.262-2.247 1.347 1.347 0 1 0-2.63.588 5.64 5.64 0 0 0 4.265 4.28c-.07.544-.107 1.099-.107 1.661v1.223c0 4.705 2.592 9.034 6.672 11.263v4.686c0 .744.604 1.348 1.348 1.348h5.476c.744 0 1.348-.604 1.348-1.348v-3.136h7.561v3.136c0 .744.604 1.348 1.348 1.348h5.476c.745 0 1.348-.604 1.348-1.348V39.84a12.835 12.835 0 0 0 5.613-6.576h1.376c2.34 0 4.243-1.91 4.243-4.257v-2.491c0-2.347-1.904-4.256-4.243-4.256zM5.724 11.997c0-5.129 4.167-9.3 9.29-9.3 5.121 0 9.288 4.171 9.288 9.3 0 5.128-4.167 9.3-9.289 9.3s-9.289-4.172-9.289-9.3zm37.58 17.01c0 .861-.694 1.562-1.547 1.562H39.41c-.6 0-1.127.396-1.294.972a10.127 10.127 0 0 1-5.286 6.277 1.348 1.348 0 0 0-.759 1.212v4.275h-2.78V40.17c0-.745-.604-1.348-1.348-1.348H17.687c-.744 0-1.348.603-1.348 1.348v3.135h-2.78v-4.169c0-.526-.307-1.005-.786-1.224-3.576-1.643-5.887-5.258-5.887-9.208V27.48c0-2 .581-3.868 1.582-5.44a11.905 11.905 0 0 0 6.545 1.951c4.682 0 8.745-2.701 10.716-6.629h4.195c.597 0 1.122-.392 1.292-.964a2.807 2.807 0 0 1 2.67-2.001h3.256c1.252 0 2.315.836 2.665 1.983l-3.877 1.711a1.348 1.348 0 0 0-.405 2.19 10.192 10.192 0 0 1 2.403 3.779c.192.536.7.894 1.27.894h2.559c.853 0 1.548.7 1.548 1.561v2.491z"></path><path d="M16.058 10.56h-2.087a1.295 1.295 0 0 1 0-2.59h3.09c.16 0 .29.13.29.291a1.348 1.348 0 0 0 2.694 0 2.988 2.988 0 0 0-2.984-2.986h-.698V4.6a1.348 1.348 0 0 0-2.696 0v.689a3.993 3.993 0 0 0-3.683 3.977c0 2.2 1.789 3.99 3.987 3.99h2.087a1.295 1.295 0 0 1 0 2.589h-3.09a.29.29 0 0 1-.288-.29 1.348 1.348 0 1 0-2.696 0 2.988 2.988 0 0 0 2.985 2.985h.698v.854a1.348 1.348 0 0 0 2.696 0v-.867a3.993 3.993 0 0 0 3.682-3.977c0-2.2-1.788-3.99-3.987-3.99zM32.96 24.023a1.343 1.343 0 1 0 0-2.686 1.343 1.343 0 0 0 0 2.686z"></path></g></symbol><symbol viewBox="0 0 17 17" id="i-search"><path fill-rule="evenodd" clip-rule="evenodd" d="M2.5 7.846a5.346 5.346 0 1 1 10.692 0 5.346 5.346 0 0 1-10.692 0zM7.846.5a7.346 7.346 0 1 0 4.44 13.2l2.93 2.93a1 1 0 0 0 1.414-1.414l-2.93-2.93A7.346 7.346 0 0 0 7.846.5z" fill="currentColor"></path></symbol><symbol viewBox="0 0 39 39" id="i-shipping"><g clip-path="url(#shipping-a)"><path d="M35.976 20.216V2.456c0-.633-.514-1.146-1.147-1.146H4.092c-.634 0-1.147.513-1.147 1.147v19.175a3.472 3.472 0 0 0-1.574.65c-1.508 1.07-1.865 3.465-.601 4.942l5.167 6.264c3.199 3.744 6.597 4.203 11.648 4.203 4.335 0 6.273.019 10.05-.842l3.68-.88c.596.833 1.543 1.373 2.607 1.373h1.813c1.8 0 3.265-1.544 3.265-3.44V23.645c0-1.811-1.336-3.299-3.024-3.43zm-5.156 2.36l-1.53-.776a9.089 9.089 0 0 0-7.971-.129c-.697.274-2.216 1.193-3.004 1.163h-5.304a3.195 3.195 0 0 0-3.191 3.19v.837l-.03-.03-3.788-4.112a3.493 3.493 0 0 0-.763-.624V10.713h9.389v4.205c0 .634.513 1.147 1.147 1.147h7.24c.633 0 1.146-.513 1.146-1.147v-4.205h9.52v9.503c-1.34.104-2.457 1.063-2.861 2.36zM16.922 10.713h4.945v3.058h-4.945v-3.058zm16.76-2.295h-9.52V3.604h9.52v4.814zM21.867 3.604v4.814h-4.945V3.604h4.945zm-7.24 0v4.814H5.24V3.604h9.389zm12.476 31.013c-3.49.8-5.591.767-9.477.767-4.742 0-7.033-.077-9.919-3.356L2.54 25.764c-.9-1.17.729-2.552 1.775-1.49l3.788 4.11c1 1.057 2.26 1.639 3.813 1.673h10.502a1.147 1.147 0 1 0 0-2.295H12.114v-1.738c0-.494.402-.896.897-.896h5.304c1.195.085 2.92-.912 3.971-1.376a6.806 6.806 0 0 1 5.968.095l2.403 1.22v8.7l-3.554.85zm9.603-.715c0 .631-.436 1.145-.971 1.145h-1.813c-.535 0-.97-.514-.97-1.145V23.645c0-.632.435-1.146.97-1.146h1.813c.535 0 .97.514.97 1.146v10.255z"></path></g></symbol><symbol viewBox="0 0 15 15" id="i-squares"><path fill-rule="evenodd" clip-rule="evenodd" d="M1 0H.3v6.4h6.4V0H1zm.7 5V1.4h3.6V5H1.7zM1 8H.3v6.4h6.4V8H1zm.7 5V9.4h3.6V13H1.7zM8.3 0h6.4v6.4H8.3V0zm1.4 1.4V5h3.6V1.4H9.7zM9 8h-.7v6.4h6.4V8H9zm.7 5V9.4h3.6V13H9.7z" fill="currentColor"></path></symbol><symbol viewBox="0 0 54 61" id="i-tag"><mask id="tag-a" fill="currentColor"><path fill-rule="evenodd" clip-rule="evenodd" d="M33.16 53.294C45.104 50.507 54 39.792 54 27 54 12.088 41.912 0 27 0S0 12.088 0 27c0 12.792 8.896 23.507 20.84 26.294L27 61l6.16-7.706z"></path></mask><path d="M33.16 53.294l-.454-1.948-.675.158-.433.541 1.562 1.25zm-12.32 0l1.562-1.249-.433-.541-.675-.158-.454 1.948zM27 61l-1.562 1.249L27 64.203l1.562-1.954L27 61zm25-34c0 11.842-8.236 21.766-19.294 24.346l.909 3.896C46.443 52.248 56 40.742 56 27h-4zM27 2c13.807 0 25 11.193 25 25h4C56 10.984 43.016-2 27-2v4zM2 27C2 13.193 13.193 2 27 2v-4C10.984-2-2 10.984-2 27h4zm19.294 24.346C10.236 48.766 2 38.842 2 27h-4c0 13.743 9.557 25.248 22.385 28.242l.91-3.896zm7.268 8.405l-6.16-7.706-3.124 2.498 6.16 7.706 3.124-2.498zm3.036-7.706l-6.16 7.706 3.124 2.498 6.16-7.706-3.124-2.498z" fill="currentColor" mask="url(#tag-a)"></path></symbol><symbol viewBox="0 0 23 23" id="i-telegram"><path d="M19.347 3.86L3.381 10.017c-1.09.437-1.084 1.045-.2 1.316l4.099 1.28 9.484-5.985c.449-.273.858-.126.522.173l-7.684 6.935H9.6h.002l-.283 4.226c.414 0 .597-.19.83-.414l1.99-1.936 4.142 3.059c.763.42 1.312.204 1.502-.707L20.5 5.15c.279-1.115-.425-1.62-1.154-1.291z" fill="currentColor"></path></symbol><symbol viewBox="0 0 67 67" id="i-union"><path fill-rule="evenodd" clip-rule="evenodd" d="M52.831 44.666H63.65a3.354 3.354 0 0 1 3.35 3.35V63.65A3.354 3.354 0 0 1 63.65 67H3.35A3.354 3.354 0 0 1 0 63.65V3.35A3.354 3.354 0 0 1 3.35 0h15.633a3.354 3.354 0 0 1 3.35 3.35v10.82l5.41-9.369a3.348 3.348 0 0 1 4.57-1.236l13.537 7.819a3.349 3.349 0 0 1 1.221 4.588l-5.405 9.362 9.366-5.409a3.314 3.314 0 0 1 2.544-.34c.86.229 1.593.79 2.038 1.56l7.82 13.539a3.343 3.343 0 0 1-1.238 4.575l-9.365 5.407zm-50.598.207a3.32 3.32 0 0 1 1.117-.206h1.376L11.173 33.5h-8.94v11.373zm30.862-.206h15.27l.146-.084-8.93-15.466-11.602 6.7 5.116 8.85zm-8.518-9.464l13.22-7.635.086-.15-15.465-8.928-6.697 11.6 8.855 5.113zm-11.339-5.28L20.1 18.039v-.171H2.233v13.4h10.23l.756-1.31.007-.019a.034.034 0 0 1 .006-.008.035.035 0 0 0 .006-.006zm9.105 6.57l-7.738-4.47-7.3 12.643h.882l14.156-8.174zm2.792.966l-.015.009-12.466 7.198h17.861l-4.47-7.732-.91.526zM33.5 46.9H20.1v17.868h13.4V46.9zm15.633 0h-13.4v17.868h13.4V46.9zM53 21.743a1.102 1.102 0 0 0-.846.115L41.516 28l8.929 15.466 10.637-6.142a1.112 1.112 0 0 0 .415-1.525l-7.814-13.532a1.133 1.133 0 0 0-.684-.524zM30.353 5.392a1.112 1.112 0 0 0-.675.523l-6.143 10.64 15.466 8.929L45.14 14.85c.152-.256.195-.562.118-.85a1.133 1.133 0 0 0-.529-.686L31.2 5.5a1.113 1.113 0 0 0-.846-.109zm-11.37-3.159H3.35c-.616.001-1.116.5-1.117 1.117v12.283H20.1V3.35a1.119 1.119 0 0 0-1.117-1.117zM2.233 48.017V63.65c.001.616.5 1.116 1.117 1.117h14.517V46.9H3.35c-.616 0-1.116.5-1.117 1.117zm61.417 16.75a1.119 1.119 0 0 0 1.117-1.117V48.017A1.119 1.119 0 0 0 63.65 46.9H51.367v17.867H63.65zM6.7 55.834a4.467 4.467 0 1 1 8.933 0 4.467 4.467 0 0 1-8.933 0zm2.233 0a2.233 2.233 0 1 0 4.466 0 2.233 2.233 0 0 0-4.466 0z" fill="currentColor"></path></symbol><symbol viewBox="0 0 18 21" id="i-user"><path fill-rule="evenodd" clip-rule="evenodd" d="M5.652 5.384a3.52 3.52 0 1 1 7.039 0 3.52 3.52 0 0 1-7.039 0zM9.172.865a4.52 4.52 0 1 0 0 9.039 4.52 4.52 0 0 0 0-9.039zm-3.58 12.423c-1.21 0-2.375.458-3.238 1.28A4.306 4.306 0 0 0 1 17.686v1.948a.5.5 0 0 0 1 0v-1.948c0-.893.372-1.755 1.043-2.394a3.699 3.699 0 0 1 2.55-1.004h7.16c.961 0 1.878.364 2.55 1.004.67.64 1.043 1.5 1.043 2.394v1.948a.5.5 0 1 0 1 0v-1.948c0-1.175-.49-2.296-1.354-3.118a4.699 4.699 0 0 0-3.238-1.28H5.592z" fill="currentColor"></path><path d="M2.354 14.568l-.345-.362.345.362zm.69.724l-.345-.362.344.362zm12.259 0l.345-.362-.345.362zm.69-.724l-.345.362.344-.362zM9.171 1.365a4.02 4.02 0 0 0-4.02 4.02h1a3.02 3.02 0 0 1 3.02-3.02v-1zm4.019 4.02c0-2.22-1.8-4.02-4.02-4.02v1a3.02 3.02 0 0 1 3.02 3.02h1zM9.17 9.403c2.22 0 4.02-1.8 4.02-4.02h-1a3.02 3.02 0 0 1-3.02 3.02v1zm-4.019-4.02c0 2.22 1.8 4.02 4.02 4.02v-1a3.02 3.02 0 0 1-3.02-3.02h-1zm0 0c0-2.22 1.8-4.019 4.02-4.019v-1a5.02 5.02 0 0 0-5.02 5.02h1zm4.02 4.02a4.02 4.02 0 0 1-4.02-4.02h-1a5.02 5.02 0 0 0 5.02 5.02v-1zm4.019-4.02c0 2.22-1.8 4.02-4.02 4.02v1a5.02 5.02 0 0 0 5.02-5.02h-1zM9.17 1.365c2.22 0 4.02 1.8 4.02 4.02h1A5.02 5.02 0 0 0 9.17.364v1zM2.7 14.93a4.198 4.198 0 0 1 2.893-1.142v-1a5.198 5.198 0 0 0-3.583 1.418l.69.724zM1.5 17.686c0-1.034.431-2.025 1.199-2.756l-.69-.724A4.806 4.806 0 0 0 .5 17.686h1zm0 1.948v-1.948h-1v1.948h1zm0 0h-1a1 1 0 0 0 1 1v-1zm0 0v1a1 1 0 0 0 1-1h-1zm0-1.948v1.948h1v-1.948h-1zm1.199-2.756A3.806 3.806 0 0 0 1.5 17.686h1c0-.753.313-1.485.888-2.032l-.69-.724zm2.893-1.142c-1.085 0-2.126.411-2.893 1.142l.69.724a3.198 3.198 0 0 1 2.203-.866v-1zm7.162 0H5.592v1h7.162v-1zm2.894 1.142a4.199 4.199 0 0 0-2.894-1.142v1c.835 0 1.627.317 2.204.866l.69-.724zm1.198 2.756a3.806 3.806 0 0 0-1.198-2.756l-.69.724c.575.547.888 1.28.888 2.032h1zm0 1.948v-1.948h-1v1.948h1zm0 0h-1a1 1 0 0 0 1 1v-1zm0 0v1a1 1 0 0 0 1-1h-1zm0-1.948v1.948h1v-1.948h-1zm-1.198-2.756a3.806 3.806 0 0 1 1.198 2.756h1a4.805 4.805 0 0 0-1.509-3.48l-.69.724zm-2.894-1.142c1.085 0 2.126.41 2.894 1.142l.69-.724a5.198 5.198 0 0 0-3.584-1.418v1zm-7.162 0h7.162v-1H5.592v1z" fill="currentColor"></path></symbol><symbol viewBox="0 0 38 38" id="i-waiting"><g clip-path="url(#waiting-a)"><path d="M32.115 35.443h-2.262v-4.038c0-4.048-2.221-7.77-6.254-10.479-.51-.343-.827-1.08-.827-1.926 0-.845.317-1.583.827-1.926 4.033-2.71 6.254-6.43 6.254-10.48V2.558h2.262a1.279 1.279 0 0 0 0-2.557H5.884a1.279 1.279 0 0 0 0 2.557h2.262v4.038c0 4.048 2.221 7.77 6.254 10.479.51.343.827 1.08.827 1.926 0 .845-.317 1.583-.827 1.926-4.033 2.71-6.254 6.43-6.254 10.48v4.037H5.884a1.279 1.279 0 0 0 0 2.557h26.231a1.279 1.279 0 0 0 0-2.557zm-21.412-4.038c0-4.277 3.21-7.071 5.123-8.357 1.226-.824 1.958-2.337 1.958-4.048 0-1.711-.732-3.224-1.958-4.049-1.913-1.285-5.123-4.08-5.123-8.356V2.557h16.593v4.038c0 4.276-3.21 7.071-5.123 8.357-1.226.824-1.958 2.337-1.958 4.048 0 1.71.732 3.224 1.958 4.049 1.913 1.285 5.123 4.08 5.123 8.356v4.038h-.424c-1.05-3.951-6.415-8.245-7.085-8.77a1.279 1.279 0 0 0-1.575 0c-.67.525-6.034 4.819-7.085 8.77h-.424v-4.038zm13.483 4.038H13.813c.843-1.97 3.248-4.462 5.187-6.11 1.938 1.648 4.343 4.14 5.186 6.11z"></path><path d="M19.001 24.44a1.283 1.283 0 0 0 1.278-1.278c0-.337-.135-.667-.374-.905a1.289 1.289 0 0 0-.904-.374c-.336 0-.666.137-.904.374a1.288 1.288 0 0 0-.374.904c0 .336.136.666.374.904s.568.375.904.375zM19.001 17.659c.706 0 1.278-.573 1.278-1.279v-2.26a1.279 1.279 0 0 0-2.556 0v2.26c0 .706.572 1.279 1.278 1.279z"></path></g></symbol><symbol viewBox="0 0 67 67" id="i-warehouse"><path fill-rule="evenodd" clip-rule="evenodd" d="M54.05 11.283l11.891 6.574a1.3 1.3 0 0 1 .672 1.138v46.317a1.3 1.3 0 0 1-1.301 1.3H1.3A1.3 1.3 0 0 1 0 65.313V18.995c0-.474.257-.91.671-1.138L32.677.163a1.3 1.3 0 0 1 1.259 0l11.005 6.084a1.301 1.301 0 0 1-1.258 2.277L33.306 2.788 2.602 19.763V64.01h5.725V39.76a1.3 1.3 0 1 1 2.602 0v24.25h5.464V51a2.605 2.605 0 0 1 2.602-2.603h5.22v-13.01a2.605 2.605 0 0 1 2.603-2.602h13.01a2.605 2.605 0 0 1 2.602 2.602v13.01h5.204A2.605 2.605 0 0 1 50.236 51v13.01h5.448V24.46H10.929v4.893a1.3 1.3 0 1 1-2.602 0v-6.195a1.3 1.3 0 0 1 1.3-1.3h47.358a1.3 1.3 0 0 1 1.301 1.3v40.853h5.725V19.763L52.79 13.56a1.301 1.301 0 0 1 1.26-2.277zM42.43 51h-2.602v2.602h2.602V51zm-7.823-13.01v-2.602h-2.602v2.602h2.602zm-5.204-2.602h-2.585v13.01H39.83l-.002-13.01H37.21v3.903a1.3 1.3 0 0 1-1.3 1.301h-5.205a1.3 1.3 0 0 1-1.3-1.3v-3.904zm-2.585 18.214V51h-2.602v2.602h2.602zM18.995 51v13.01h13.012L32.005 51H29.42v3.903c0 .72-.583 1.302-1.301 1.302h-5.204a1.301 1.301 0 0 1-1.301-1.302V51h-2.619zm15.63 0v13.01h13.011L47.634 51h-2.602v3.903c0 .72-.583 1.302-1.3 1.302h-5.205a1.3 1.3 0 0 1-1.3-1.302V51h-2.603zM10.265 35.582a1.341 1.341 0 0 1-.942.389c-.35 0-.694-.141-.941-.389a1.345 1.345 0 0 1-.39-.943c0-.35.142-.695.39-.942.247-.248.591-.39.941-.39s.695.142.942.39c.248.247.39.591.39.942s-.142.694-.39.943zM48.63 11.324c.35 0 .694-.142.942-.39.248-.248.39-.592.39-.942s-.142-.694-.39-.942a1.344 1.344 0 0 0-.942-.39c-.35 0-.694.142-.942.39-.247.248-.39.591-.39.942 0 .35.143.694.39.942.248.248.591.39.942.39zm-15.322 7.327a5.335 5.335 0 0 1-5.33-5.329 5.335 5.335 0 0 1 5.33-5.329 5.335 5.335 0 0 1 5.329 5.33 5.335 5.335 0 0 1-5.33 5.328zm0-2.537a2.795 2.795 0 0 0 2.79-2.792 2.794 2.794 0 0 0-2.79-2.79 2.794 2.794 0 0 0-2.792 2.79 2.795 2.795 0 0 0 2.792 2.792z" fill="currentColor"></path></symbol><symbol viewBox="0 0 24 24" id="i-youtube"><path d="M20.796 6.534c.433 1.69.433 5.216.433 5.216s0 3.526-.433 5.215c-.241.934-.945 1.669-1.837 1.917-1.62.451-7.21.451-7.21.451s-5.585 0-7.208-.451c-.896-.252-1.6-.986-1.837-1.917-.433-1.689-.433-5.215-.433-5.215s0-3.526.433-5.216c.24-.933.945-1.668 1.837-1.916 1.623-.452 7.209-.452 7.209-.452s5.589 0 7.209.452c.895.252 1.599.986 1.837 1.916zM9.854 15.068l5.687-3.318-5.687-3.318v6.636z" fill="currentColor"></path></symbol></svg>