<svg width="24" height="24" viewBox="0 0 24 24" fill="none" xmlns="http://www.w3.org/2000/svg">
<path fill-rule="evenodd" clip-rule="evenodd" d="M14.7629 3H9.23712C4.19407 3 3 4.19407 3 9.23712V14.7629C3 19.8059 4.19407 21 9.23712 21H14.7629C19.8059 21 21 19.8059 21 14.7629V9.23712C21 4.19407 19.8059 3 14.7629 3ZM17.3417 8.7168C17.7355 8.7168 17.8244 8.92005 17.7355 9.19951C17.5967 9.83999 16.4443 11.5389 16.0874 12.0652C16.0196 12.1652 15.9805 12.2228 15.9825 12.2228C15.8428 12.4515 15.792 12.5531 15.9825 12.8071C16.0514 12.9011 16.1975 13.0444 16.3644 13.2082C16.5361 13.3767 16.7298 13.5668 16.8844 13.7471C17.4433 14.3823 17.8752 14.9158 17.9896 15.2842C18.0912 15.6526 17.9133 15.8431 17.5323 15.8431H16.2239C15.8771 15.8431 15.6984 15.644 15.3175 15.2196C15.1542 15.0377 14.9537 14.8143 14.6868 14.5474C13.9119 13.798 13.569 13.6963 13.3784 13.6963C13.1117 13.6963 13.0354 13.7599 13.0354 14.1409V15.3223C13.0354 15.6399 12.9338 15.8304 12.0954 15.8304C10.7108 15.8304 9.17376 14.992 8.09401 13.4296C6.46804 11.1431 6.02344 9.41546 6.02344 9.07248C6.02344 8.88194 6.08695 8.7041 6.46804 8.7041H7.78914C8.11941 8.7041 8.24644 8.84383 8.37347 9.21222C9.02132 11.0795 10.1011 12.7182 10.5457 12.7182C10.7108 12.7182 10.787 12.642 10.787 12.2228V10.292C10.7557 9.74314 10.5646 9.50402 10.4229 9.32671C10.3351 9.21673 10.2662 9.13053 10.2662 9.00897C10.2662 8.85654 10.3932 8.7041 10.5965 8.7041H12.6543C12.9338 8.7041 13.0354 8.85654 13.0354 9.18681V11.7909C13.0354 12.0704 13.1498 12.172 13.2387 12.172C13.4038 12.172 13.5436 12.0704 13.8484 11.7655C14.7884 10.7112 15.4617 9.08519 15.4617 9.08519C15.5506 8.89464 15.703 8.7168 16.0333 8.7168H17.3417Z" fill="white"/>
</svg>
