<svg width="167" height="26" viewBox="0 0 167 26" fill="none" xmlns="http://www.w3.org/2000/svg">
<path fill-rule="evenodd" clip-rule="evenodd" d="M8.15784 6.5607H3.09139C2.91965 6.5607 2.83378 6.72838 2.83378 6.89607V20.8978C2.83378 20.9817 2.83378 21.0655 2.91965 21.1493C3.00552 21.2332 3.09139 21.2332 3.09139 21.2332H14.5982C14.6841 21.2332 14.6841 20.9817 14.8559 20.6463L15.1135 20.2271L22.155 8.06987C22.2409 7.98603 22.2409 7.65066 22.2409 7.23144C22.2409 6.97991 22.155 6.72839 21.9832 6.47686L19.5788 2.78777C19.5788 2.78777 19.4071 2.70393 19.3212 2.70393C19.1495 2.70393 19.0636 2.78777 18.9777 2.78777L10.047 11.759C9.96116 11.8428 9.96116 12.0105 9.96116 12.1782C9.96116 12.3459 10.047 12.5974 10.1329 12.6812L14.1689 16.2865C15.8863 17.7956 14.8559 20.1432 11.1634 20.3109C12.3656 19.1371 12.6232 18.5502 11.7645 17.7956L8.32959 14.6935C7.64261 14.1066 7.29912 13.1004 7.21325 12.1782C7.21325 11.2559 7.47087 10.3336 8.15784 9.66288L17.0885 0.859389C17.1744 0.775546 17.3462 0.607861 17.432 0.524018C18.0331 0.104804 18.806 -0.0628821 19.493 0.0209607C20.2658 0.0209607 21.0387 0.356332 21.5539 0.859389C21.6398 0.943232 21.7256 1.11092 21.8115 1.19476L24.3018 4.88384C24.817 5.55458 24.9888 6.30917 24.9888 7.06376C25.0746 8.15371 24.6453 9.15983 24.4735 9.4952L17.432 21.6524L17.2603 21.9878C16.6592 23.0777 16.1439 24 14.5982 24H3.09139C2.23267 24 1.45982 23.6646 0.944591 23.0777C0.343487 22.4908 0 21.7362 0 20.8978V6.89607C0 5.21921 1.37395 3.79389 3.09139 3.79389H10.9916L8.15784 6.5607Z" fill="#FF6269"/>
<path fill-rule="evenodd" clip-rule="evenodd" d="M164.576 13.7222C164.879 14.475 165.03 15.3785 165.03 16.4325H164.879V16.5831C164.879 17.6371 164.727 18.39 164.424 18.9923C164.121 19.5945 163.667 19.8957 162.91 19.8957H162.456L162.153 19.7451V12.8187L162.456 12.6682H162.91C163.667 12.6682 164.273 12.9693 164.576 13.7222ZM157.61 19.1428C157.308 18.5405 157.156 17.7877 157.156 16.7336H157.308C157.308 15.6796 157.459 14.7762 157.762 14.0233C158.065 13.2704 158.519 12.9693 159.276 12.9693H159.579H159.882V19.8957L159.579 20.0463H159.125C158.368 20.0463 157.913 19.7451 157.61 19.1428ZM155.793 12.367C155.188 13.421 154.885 14.7762 154.885 16.4325H154.733C154.733 17.9382 155.036 19.2934 155.642 20.1968C156.248 21.1003 157.156 21.552 158.368 21.552H159.125C159.276 21.552 159.579 21.552 159.73 21.4014V25.7681L162.002 25.3163V21.4014C162.064 21.4014 162.127 21.4273 162.2 21.4575C162.304 21.5003 162.43 21.552 162.607 21.552H163.364C164.424 21.552 165.484 21.1003 166.09 20.1968C166.696 19.1428 166.998 17.9382 166.998 16.4325V16.2819C166.998 14.6256 166.696 13.2705 166.09 12.2164C165.484 11.1624 164.576 10.7107 163.364 10.7107C163.213 10.7107 163.099 10.7483 162.986 10.786C162.872 10.8236 162.759 10.8613 162.607 10.8613C162.532 10.9366 162.418 10.9742 162.304 11.0118C162.191 11.0495 162.077 11.0871 162.002 11.1624V6.49463L159.73 6.94635V11.1624C159.655 11.1624 159.541 11.1248 159.427 11.0871C159.314 11.0495 159.2 11.0118 159.125 11.0118C158.973 10.8613 158.822 10.8613 158.519 10.8613C157.308 10.8613 156.399 11.313 155.793 12.367ZM44.7873 21.8258H41.6404V9.95746H36.5454V21.8258H33.3984V7.37076H44.7873V21.8258ZM51.5627 16.0438H50.0837V21.8258H46.9776V7.37076H50.0837V13.0006H51.119L54.2251 7.37076H58.0706L53.9292 13.9136L58.3665 21.8258H54.5209L51.5627 16.0438ZM71.8417 21.8258H75.0117V7.37076H64.0609V21.8258H67.0867V9.95746H71.8417V21.8258ZM83.626 16.3853C83.626 15.4917 83.473 14.7471 83.1671 14.3003C82.8612 13.7045 82.5552 13.5556 81.9434 13.5556C81.7904 13.5556 81.6375 13.5928 81.4845 13.6301C81.3315 13.6673 81.1786 13.7045 81.0256 13.7045C80.7197 13.8535 80.5667 14.0024 80.4138 14.3003V18.6193C80.4499 18.6544 80.486 18.6979 80.5241 18.7438C80.6475 18.8922 80.7919 19.0661 81.0256 19.0661C81.3315 19.215 81.6375 19.215 81.9434 19.215C82.5552 19.215 82.8612 18.9171 83.1671 18.4703C83.473 18.0235 83.473 17.2789 83.473 16.5342V16.3853H83.626ZM86.8382 16.5342C86.8382 18.1725 86.5323 19.3639 85.7675 20.4064C85.1556 21.3 84.0849 21.7468 82.8612 21.7468C82.4023 21.7468 81.9434 21.5979 81.4845 21.449C81.0256 21.3 80.7197 21.0022 80.4138 20.5554V25.1722L77.2015 25.768V11.0238H80.2608L80.4138 12.2152C80.7197 11.7684 81.0256 11.4706 81.4845 11.1727C81.9434 11.0238 82.4023 10.8748 82.8612 10.8748C84.0849 10.8748 85.1556 11.3216 85.7675 12.3642C86.5323 13.4067 86.8382 14.7471 86.8382 16.2364V16.5342ZM97.3514 10.8748H94.1846L91.4703 16.8901H91.3195V10.8748H88.1527V21.8257H91.3195L94.0339 15.8104H94.1846V21.8257H97.3514V10.8748ZM108.302 21.8257H105.286V17.8155H102.701V21.8257H99.5416V10.8748H102.701V15.1935H105.286V10.8748H108.302V21.8257ZM116.091 13.4969H118.801L119.253 10.8748H109.616V13.4969H112.778V21.8257H116.091V13.4969ZM131.518 21.8258H129.084V9.34883H123V21.8258H120.567V7.37076H131.518V21.8258ZM140.086 13.6765C140.531 14.4138 140.68 15.2985 140.68 16.3307V16.4782C140.68 17.5104 140.531 18.2477 140.086 18.8375C139.64 19.4273 139.046 19.7222 138.304 19.7222C137.858 19.7222 137.413 19.5748 137.116 19.4273C137.039 19.3512 136.962 19.2848 136.888 19.2207L136.888 19.2207C136.675 19.0365 136.484 18.8707 136.373 18.5426V13.824C136.522 13.3816 136.819 13.0867 137.116 12.9392C137.413 12.7918 137.858 12.6443 138.304 12.6443C139.195 12.6443 139.64 12.9392 140.086 13.6765ZM141.867 20.3121C142.61 19.2799 142.907 18.1002 142.907 16.6257V16.3307C142.907 14.7087 142.61 13.3816 141.867 12.3494C141.273 11.3172 140.234 10.8748 139.046 10.8748C138.452 10.8748 137.858 11.0223 137.413 11.3172C136.967 11.6121 136.522 12.0545 136.225 12.4969L135.928 11.1698H134.146V25.768L136.373 25.3256V20.4595C136.819 20.9019 137.116 21.1968 137.561 21.3443C138.007 21.4917 138.452 21.6392 139.046 21.6392C140.234 21.6392 141.125 21.1968 141.867 20.3121ZM146.446 16.4253C146.446 17.4753 146.595 18.2254 147.04 18.9755C147.485 19.5755 148.078 19.8755 148.82 19.8755C149.562 19.8755 150.155 19.5755 150.601 18.9755C151.046 18.3754 151.194 17.4753 151.194 16.4253V16.2752C151.194 15.2252 151.046 14.4751 150.601 13.8751C150.155 13.275 149.562 12.825 148.82 12.825C148.078 12.825 147.485 13.125 147.04 13.8751C146.595 14.4751 146.446 15.3752 146.446 16.2752V16.4253ZM144.221 16.2752C144.221 14.7751 144.666 13.425 145.408 12.375C146.298 11.3249 147.336 10.8748 148.82 10.8748C150.304 10.8748 151.342 11.3249 152.233 12.375C153.123 13.425 153.419 14.6251 153.419 16.2752V16.4253C153.419 17.9254 152.974 19.2755 152.233 20.3256C151.491 21.3756 150.304 21.8257 148.82 21.8257C147.336 21.8257 146.298 21.3756 145.408 20.3256C144.666 19.2755 144.221 18.0754 144.221 16.4253V16.2752Z" fill="#33468A"/>
</svg>
