<?xml version="1.0" encoding="UTF-8"?>
<!DOCTYPE svg PUBLIC "-//W3C//DTD SVG 1.1//EN" "http://www.w3.org/Graphics/SVG/1.1/DTD/svg11.dtd">
<!-- Creator: CorelDRAW 2019 (64-Bit) -->
<svg xmlns="http://www.w3.org/2000/svg" xml:space="preserve" width="74.6904mm" height="15.0811mm" version="1.1" style="shape-rendering:geometricPrecision; text-rendering:geometricPrecision; image-rendering:optimizeQuality; fill-rule:evenodd; clip-rule:evenodd"
viewBox="0 0 8512.22 1718.74"
 xmlns:xlink="http://www.w3.org/1999/xlink"
 xmlns:xodm="http://www.corel.com/coreldraw/odm/2003">
 <defs>
  <style type="text/css">
   <![CDATA[
    .fil0 {fill:#F20E04}
    .fil1 {fill:#0C54A0;fill-rule:nonzero}
   ]]>
  </style>
 </defs>
 <g id="Layer_x0020_1">
  <metadata id="CorelCorpID_0Corel-Layer"/>
  <path class="fil0" d="M565.96 472.72l-351.35 0c-12.26,0 -20.86,10.17 -20.86,22.25l0 1001.38c0,5.72 1.85,11.43 6.14,15.26 3.69,4.44 9.2,6.34 14.71,6.34l806.31 0c3.69,0 6.14,-19.68 16.56,-40.04l18.41 -31.75 489.91 -868.6c3.08,-4.44 8.59,-27.33 6.14,-60.37 -1.24,-18.42 -5.54,-38.12 -15.96,-53.36l-171.69 -261.8c-2.45,-0.63 -11.64,-6.99 -18.38,-6.99 -10.43,0 -16.56,5.72 -21.46,8.27l-624.82 640.48c-6.13,5.71 -8.58,17.79 -7.35,32.4 0.6,14.61 3.67,27.32 11.02,33.67l280.85 259.25c118.95,109.28 45.37,273.21 -211.56,289.74 84.63,-83.22 101.17,-123.26 40.47,-179.18l-238.52 -219.84c-48.44,-44.48 -74.18,-111.85 -76.03,-177.28 -2.45,-65.45 19.01,-133.43 65.6,-181.09l-0.6 0 625.43 -641.12 0.6 0c7.99,-7.64 15.34,-15.24 24.55,-21.6 40.47,-27.96 94.42,-41.95 144.09,-38.12 53.95,2.53 107.31,22.86 144.09,60.98 6.75,7.62 12.88,15.9 18.41,24.79l175.36 264.96c33.11,50.2 46.59,104.2 49.67,153.78 4.3,77.5 -21.46,151.85 -33.11,174.08l-489.93 867.32 -14.11 26.69c-39.84,75.62 -76.64,145.51 -187.62,145.51l-806.31 0c-58.25,0 -112.82,-25.41 -150.84,-64.82l-0.62 -0.63c-39.25,-40.67 -63.16,-95.94 -63.16,-156.94l0 -1001.38c0,-122.65 96.88,-222.39 214.61,-222.39l552.47 0 -201.12 200.15z"/>
  <path class="fil1" d="M2316.44 724.03l344.7 0c4.65,0 9.3,0 13.95,0 4.65,0 9.3,0.36 13.95,1.09 61.11,3.65 117.06,23.32 167.87,59.02 50.81,35.69 76.21,103.09 76.21,202.19 0,80.14 -15.6,138.8 -46.82,175.95 -31.23,37.16 -65.43,62.29 -102.62,75.41 -24.58,8.74 -48.32,14.03 -71.24,15.85 -22.92,1.81 -41.35,2.72 -55.29,2.72l-166.38 0 0 278.69 -9.96 0 -174.35 0 0 -810.94 9.96 0zm174.35 158.47l0 216.4 126.53 0c39.19,0 69.75,-7.83 91.65,-23.5 21.92,-15.66 32.88,-44.98 32.88,-87.97 0,-40.08 -10.46,-67.58 -31.39,-82.52 -20.92,-14.93 -51.97,-22.41 -93.15,-22.41l-126.53 0zm548.94 652.47l0 -810.94 9.96 0 378.59 0c89.66,0 152.76,23.14 189.29,69.41 36.53,46.27 54.78,99.99 54.78,161.21 0,53.19 -9.96,94.9 -29.87,125.14 -19.93,30.24 -41.85,51.91 -65.77,65.03 -4.64,2.91 -9.13,5.28 -13.44,7.1 -4.32,1.82 -8.47,3.46 -12.46,4.92l0 3.27c39.18,11.66 65.59,31.51 79.21,59.57 13.61,28.05 21.74,57.74 24.4,89.07 0.66,8.02 1.16,16.04 1.49,24.05 0.33,8.01 0.5,16.04 0.5,24.05 0.66,48.81 2.17,84.34 4.49,106.56 2.31,22.22 8.14,41.71 17.43,58.46 0.67,2.19 1.66,4.38 3,6.56 1.32,2.18 2.64,4.36 3.98,6.55l-9.96 0 -177.34 0c-10.61,-16.75 -17.77,-36.44 -21.41,-59.01 -3.65,-22.59 -6.14,-60.48 -7.48,-113.67 0,-3.64 -0.16,-7.65 -0.49,-12.02 -0.33,-4.36 -0.49,-8.38 -0.49,-12.01 -1.99,-25.51 -10.13,-49.01 -24.42,-70.5 -14.27,-21.49 -45.99,-32.24 -95.14,-32.24l-124.53 0 0 299.46 -9.96 0 -174.35 0zm184.31 -653.55l0 206.55 149.43 0c0.67,0 1.16,0 1.49,0 0.34,0 0.83,0 1.5,0 27.23,-0.73 52.3,-8.01 75.22,-21.86 22.91,-13.85 34.37,-40.44 34.37,-79.78 0,-42.26 -11.47,-70.32 -34.37,-84.15 -22.92,-13.85 -50.98,-20.76 -84.19,-20.76l-143.46 0zm591.78 -157.39l174.35 0 0 810.94 -9.96 0 -174.35 0 0 -810.94 9.96 0zm516.08 315.86l0 495.08 -9.96 0 -174.36 0 0 -810.94 9.97 0 177.32 0 283.95 491.81 0 -491.81 9.96 0 174.35 0 0 810.94 -9.96 0 -177.34 0 -283.93 -495.08zm787.04 -158.47l-223.16 0 0 -157.39 9.96 0 620.67 0 0 157.39 -223.17 0 0 653.55 -9.96 0 -174.35 0 0 -653.55zm510.09 -157.39l344.7 0c4.66,0 9.3,0 13.96,0 4.64,0 9.3,0.36 13.94,1.09 61.11,3.65 117.07,23.32 167.87,59.02 50.82,35.69 76.21,103.09 76.21,202.19 0,80.14 -15.6,138.8 -46.82,175.95 -31.22,37.16 -65.42,62.29 -102.62,75.41 -24.57,8.74 -48.31,14.03 -71.23,15.85 -22.92,1.81 -41.35,2.72 -55.3,2.72l-166.38 0 0 278.69 -9.96 0 -174.35 0 0 -810.94 9.96 0zm174.35 158.47l0 216.4 126.53 0c39.19,0 69.75,-7.83 91.65,-23.5 21.93,-15.66 32.89,-44.98 32.89,-87.97 0,-40.08 -10.46,-67.58 -31.39,-82.52 -20.92,-14.93 -51.98,-22.41 -93.16,-22.41l-126.53 0zm548.94 652.47l0 -810.94 9.96 0 378.59 0c89.66,0 152.76,23.14 189.29,69.41 36.53,46.27 54.8,99.99 54.8,161.21 0,53.19 -9.97,94.9 -29.88,125.14 -19.92,30.24 -41.85,51.91 -65.76,65.03 -4.65,2.91 -9.14,5.28 -13.45,7.1 -4.32,1.82 -8.47,3.46 -12.46,4.92l0 3.27c39.19,11.66 65.59,31.51 79.21,59.57 13.61,28.05 21.76,57.74 24.4,89.07 0.67,8.02 1.16,16.04 1.5,24.05 0.33,8.01 0.49,16.04 0.49,24.05 0.67,48.81 2.17,84.34 4.49,106.56 2.31,22.22 8.14,41.71 17.44,58.46 0.66,2.19 1.66,4.38 2.99,6.56 1.32,2.18 2.66,4.36 3.98,6.55l-9.96 0 -177.33 0c-10.62,-16.75 -17.77,-36.44 -21.41,-59.01 -3.66,-22.59 -6.15,-60.48 -7.48,-113.67 0,-3.64 -0.17,-7.65 -0.49,-12.02 -0.34,-4.36 -0.5,-8.38 -0.5,-12.01 -1.99,-25.51 -10.13,-49.01 -24.41,-70.5 -14.28,-21.49 -46,-32.24 -95.15,-32.24l-124.53 0 0 299.46 -9.96 0 -174.35 0zm184.31 -653.55l0 206.55 149.44 0c0.66,0 1.16,0 1.49,0 0.33,0 0.83,0 1.49,0 27.23,-0.73 52.31,-8.01 75.22,-21.86 22.92,-13.85 34.37,-40.44 34.37,-79.78 0,-42.26 -11.45,-70.32 -34.37,-84.15 -22.91,-13.85 -50.97,-20.76 -84.19,-20.76l-143.46 0zm921.56 676.51c-135.5,-0.73 -231.64,-44.81 -288.42,-132.25 -56.8,-87.42 -85.19,-186.15 -85.19,-296.18 0,-110.74 28.39,-209.84 85.19,-297.27 56.78,-87.44 152.92,-131.14 288.42,-131.14l9.96 0c136.16,0 232.46,43.71 288.92,131.14 56.45,87.44 84.68,186.53 84.68,297.27 0,110.75 -28.23,209.65 -84.68,296.72 -56.46,87.07 -152.76,130.61 -288.92,130.61l-9.96 1.09zm4.97 -157.38c50.49,-1.46 88.18,-16.58 113.09,-45.36 24.9,-28.78 42.34,-60.65 52.3,-95.63 7.31,-26.96 11.62,-52.64 12.96,-77.05 1.32,-24.4 1.99,-42.08 1.99,-53.01 0,-81.6 -11.13,-141.16 -33.38,-178.69 -22.26,-37.52 -46.66,-62.84 -73.22,-75.96 -13.29,-6.55 -26.41,-10.93 -39.35,-13.12 -12.96,-2.18 -24.41,-3.27 -34.38,-3.27 -9.96,0 -21.41,1.09 -34.36,3.27 -12.96,2.19 -26.39,6.93 -40.36,14.21 -26.57,13.12 -50.81,38.43 -72.73,75.96 -21.9,37.52 -32.87,96.72 -32.87,177.59 0,14.58 0.67,30.96 1.99,49.19 1.33,18.21 3.98,36.79 7.97,55.73 7.98,40.8 24.57,78.33 49.81,112.58 25.24,34.24 65.43,52.09 120.54,53.55zm686.43 -333.34l306.84 0 0 157.38 -306.84 0 0 310.39 -9.96 0 -174.35 0 0 -810.94 9.96 0 536.98 0 0 157.39 -362.63 0 0 185.79z"/>
 </g>
</svg>
